%TF.GenerationSoftware,KiCad,Pcbnew,(5.1.10)-1*%
%TF.CreationDate,2021-10-14T08:55:52-04:00*%
%TF.ProjectId,TP_Final,54505f46-696e-4616-9c2e-6b696361645f,rev?*%
%TF.SameCoordinates,Original*%
%TF.FileFunction,Legend,Top*%
%TF.FilePolarity,Positive*%
%FSLAX46Y46*%
G04 Gerber Fmt 4.6, Leading zero omitted, Abs format (unit mm)*
G04 Created by KiCad (PCBNEW (5.1.10)-1) date 2021-10-14 08:55:52*
%MOMM*%
%LPD*%
G01*
G04 APERTURE LIST*
%ADD10C,0.120000*%
%ADD11C,0.150000*%
%ADD12C,0.250000*%
G04 APERTURE END LIST*
D10*
%TO.C,J2*%
X135100000Y-100810000D02*
X135100000Y-100040000D01*
X135100000Y-98460000D02*
X135100000Y-97500000D01*
X135100000Y-95920000D02*
X135100000Y-95150000D01*
X129800000Y-100810000D02*
X129800000Y-95150000D01*
X129340000Y-100810000D02*
X129340000Y-95150000D01*
X135660000Y-100810000D02*
X135660000Y-100040000D01*
X135660000Y-98460000D02*
X135660000Y-97500000D01*
X135660000Y-95920000D02*
X135660000Y-95150000D01*
X129340000Y-100810000D02*
X135660000Y-100810000D01*
X129340000Y-95150000D02*
X135660000Y-95150000D01*
X135160000Y-101050000D02*
X135900000Y-101050000D01*
X135900000Y-101050000D02*
X135900000Y-100550000D01*
%TO.C,J3*%
X135900000Y-109590000D02*
X135900000Y-109090000D01*
X135160000Y-109590000D02*
X135900000Y-109590000D01*
X129340000Y-103690000D02*
X135660000Y-103690000D01*
X129340000Y-109350000D02*
X135660000Y-109350000D01*
X135660000Y-104460000D02*
X135660000Y-103690000D01*
X135660000Y-107000000D02*
X135660000Y-106040000D01*
X135660000Y-109350000D02*
X135660000Y-108580000D01*
X129340000Y-109350000D02*
X129340000Y-103690000D01*
X129800000Y-109350000D02*
X129800000Y-103690000D01*
X135100000Y-104460000D02*
X135100000Y-103690000D01*
X135100000Y-107000000D02*
X135100000Y-106040000D01*
X135100000Y-109350000D02*
X135100000Y-108580000D01*
D11*
%TO.C,U1*%
X116500000Y-100250000D02*
X116500000Y-100150000D01*
X119500000Y-100250000D02*
X119500000Y-100150000D01*
X119500000Y-97350000D02*
X119500000Y-97250000D01*
X116500000Y-97350000D02*
X116500000Y-97250000D01*
X116500000Y-97250000D02*
X116600000Y-97250000D01*
X119400000Y-97250000D02*
X119500000Y-97250000D01*
X119400000Y-100250000D02*
X119500000Y-100250000D01*
X116500000Y-100250000D02*
X116600000Y-100250000D01*
D12*
X115750000Y-98000000D02*
G75*
G03*
X115750000Y-98000000I-125000J0D01*
G01*
%TO.C,U2*%
X115750000Y-105000000D02*
G75*
G03*
X115750000Y-105000000I-125000J0D01*
G01*
D11*
X116500000Y-107250000D02*
X116600000Y-107250000D01*
X119400000Y-107250000D02*
X119500000Y-107250000D01*
X119400000Y-104250000D02*
X119500000Y-104250000D01*
X116500000Y-104250000D02*
X116600000Y-104250000D01*
X116500000Y-104350000D02*
X116500000Y-104250000D01*
X119500000Y-104350000D02*
X119500000Y-104250000D01*
X119500000Y-107250000D02*
X119500000Y-107150000D01*
X116500000Y-107250000D02*
X116500000Y-107150000D01*
D10*
%TO.C,C1*%
X114988748Y-94485000D02*
X115511252Y-94485000D01*
X114988748Y-93015000D02*
X115511252Y-93015000D01*
%TO.C,C2*%
X119538748Y-93015000D02*
X120061252Y-93015000D01*
X119538748Y-94485000D02*
X120061252Y-94485000D01*
%TO.C,C3*%
X114738748Y-110015000D02*
X115261252Y-110015000D01*
X114738748Y-111485000D02*
X115261252Y-111485000D01*
%TO.C,C4*%
X119238748Y-110015000D02*
X119761252Y-110015000D01*
X119238748Y-111485000D02*
X119761252Y-111485000D01*
%TO.C,C5*%
X125765000Y-94488748D02*
X125765000Y-95011252D01*
X127235000Y-94488748D02*
X127235000Y-95011252D01*
%TO.C,C6*%
X125765000Y-99038748D02*
X125765000Y-99561252D01*
X127235000Y-99038748D02*
X127235000Y-99561252D01*
%TO.C,C7*%
X127235000Y-104938748D02*
X127235000Y-105461252D01*
X125765000Y-104938748D02*
X125765000Y-105461252D01*
%TO.C,C8*%
X125765000Y-109488748D02*
X125765000Y-110011252D01*
X127235000Y-109488748D02*
X127235000Y-110011252D01*
%TO.C,FB1*%
X122290000Y-94491422D02*
X122290000Y-95008578D01*
X123710000Y-94491422D02*
X123710000Y-95008578D01*
%TO.C,FB2*%
X122290000Y-99053922D02*
X122290000Y-99571078D01*
X123710000Y-99053922D02*
X123710000Y-99571078D01*
%TO.C,FB3*%
X123710000Y-104928922D02*
X123710000Y-105446078D01*
X122290000Y-104928922D02*
X122290000Y-105446078D01*
%TO.C,FB4*%
X123710000Y-109491422D02*
X123710000Y-110008578D01*
X122290000Y-109491422D02*
X122290000Y-110008578D01*
%TO.C,R1*%
X113765000Y-102477064D02*
X113765000Y-102022936D01*
X115235000Y-102477064D02*
X115235000Y-102022936D01*
%TO.C,J2*%
D11*
X129166666Y-101702380D02*
X129166666Y-102416666D01*
X129119047Y-102559523D01*
X129023809Y-102654761D01*
X128880952Y-102702380D01*
X128785714Y-102702380D01*
X129595238Y-101797619D02*
X129642857Y-101750000D01*
X129738095Y-101702380D01*
X129976190Y-101702380D01*
X130071428Y-101750000D01*
X130119047Y-101797619D01*
X130166666Y-101892857D01*
X130166666Y-101988095D01*
X130119047Y-102130952D01*
X129547619Y-102702380D01*
X130166666Y-102702380D01*
%TO.C,J3*%
X129166666Y-110202380D02*
X129166666Y-110916666D01*
X129119047Y-111059523D01*
X129023809Y-111154761D01*
X128880952Y-111202380D01*
X128785714Y-111202380D01*
X129547619Y-110202380D02*
X130166666Y-110202380D01*
X129833333Y-110583333D01*
X129976190Y-110583333D01*
X130071428Y-110630952D01*
X130119047Y-110678571D01*
X130166666Y-110773809D01*
X130166666Y-111011904D01*
X130119047Y-111107142D01*
X130071428Y-111154761D01*
X129976190Y-111202380D01*
X129690476Y-111202380D01*
X129595238Y-111154761D01*
X129547619Y-111107142D01*
%TO.C,U1*%
X116060595Y-94977380D02*
X116060595Y-95786904D01*
X116108214Y-95882142D01*
X116155833Y-95929761D01*
X116251071Y-95977380D01*
X116441547Y-95977380D01*
X116536785Y-95929761D01*
X116584404Y-95882142D01*
X116632023Y-95786904D01*
X116632023Y-94977380D01*
X117632023Y-95977380D02*
X117060595Y-95977380D01*
X117346309Y-95977380D02*
X117346309Y-94977380D01*
X117251071Y-95120238D01*
X117155833Y-95215476D01*
X117060595Y-95263095D01*
%TO.C,U2*%
X116060595Y-101977380D02*
X116060595Y-102786904D01*
X116108214Y-102882142D01*
X116155833Y-102929761D01*
X116251071Y-102977380D01*
X116441547Y-102977380D01*
X116536785Y-102929761D01*
X116584404Y-102882142D01*
X116632023Y-102786904D01*
X116632023Y-101977380D01*
X117060595Y-102072619D02*
X117108214Y-102025000D01*
X117203452Y-101977380D01*
X117441547Y-101977380D01*
X117536785Y-102025000D01*
X117584404Y-102072619D01*
X117632023Y-102167857D01*
X117632023Y-102263095D01*
X117584404Y-102405952D01*
X117012976Y-102977380D01*
X117632023Y-102977380D01*
%TO.C,C1*%
X115083333Y-92427142D02*
X115035714Y-92474761D01*
X114892857Y-92522380D01*
X114797619Y-92522380D01*
X114654761Y-92474761D01*
X114559523Y-92379523D01*
X114511904Y-92284285D01*
X114464285Y-92093809D01*
X114464285Y-91950952D01*
X114511904Y-91760476D01*
X114559523Y-91665238D01*
X114654761Y-91570000D01*
X114797619Y-91522380D01*
X114892857Y-91522380D01*
X115035714Y-91570000D01*
X115083333Y-91617619D01*
X116035714Y-92522380D02*
X115464285Y-92522380D01*
X115750000Y-92522380D02*
X115750000Y-91522380D01*
X115654761Y-91665238D01*
X115559523Y-91760476D01*
X115464285Y-91808095D01*
%TO.C,C2*%
X119633333Y-92427142D02*
X119585714Y-92474761D01*
X119442857Y-92522380D01*
X119347619Y-92522380D01*
X119204761Y-92474761D01*
X119109523Y-92379523D01*
X119061904Y-92284285D01*
X119014285Y-92093809D01*
X119014285Y-91950952D01*
X119061904Y-91760476D01*
X119109523Y-91665238D01*
X119204761Y-91570000D01*
X119347619Y-91522380D01*
X119442857Y-91522380D01*
X119585714Y-91570000D01*
X119633333Y-91617619D01*
X120014285Y-91617619D02*
X120061904Y-91570000D01*
X120157142Y-91522380D01*
X120395238Y-91522380D01*
X120490476Y-91570000D01*
X120538095Y-91617619D01*
X120585714Y-91712857D01*
X120585714Y-91808095D01*
X120538095Y-91950952D01*
X119966666Y-92522380D01*
X120585714Y-92522380D01*
%TO.C,C3*%
X114833333Y-109427142D02*
X114785714Y-109474761D01*
X114642857Y-109522380D01*
X114547619Y-109522380D01*
X114404761Y-109474761D01*
X114309523Y-109379523D01*
X114261904Y-109284285D01*
X114214285Y-109093809D01*
X114214285Y-108950952D01*
X114261904Y-108760476D01*
X114309523Y-108665238D01*
X114404761Y-108570000D01*
X114547619Y-108522380D01*
X114642857Y-108522380D01*
X114785714Y-108570000D01*
X114833333Y-108617619D01*
X115166666Y-108522380D02*
X115785714Y-108522380D01*
X115452380Y-108903333D01*
X115595238Y-108903333D01*
X115690476Y-108950952D01*
X115738095Y-108998571D01*
X115785714Y-109093809D01*
X115785714Y-109331904D01*
X115738095Y-109427142D01*
X115690476Y-109474761D01*
X115595238Y-109522380D01*
X115309523Y-109522380D01*
X115214285Y-109474761D01*
X115166666Y-109427142D01*
%TO.C,C4*%
X119333333Y-109427142D02*
X119285714Y-109474761D01*
X119142857Y-109522380D01*
X119047619Y-109522380D01*
X118904761Y-109474761D01*
X118809523Y-109379523D01*
X118761904Y-109284285D01*
X118714285Y-109093809D01*
X118714285Y-108950952D01*
X118761904Y-108760476D01*
X118809523Y-108665238D01*
X118904761Y-108570000D01*
X119047619Y-108522380D01*
X119142857Y-108522380D01*
X119285714Y-108570000D01*
X119333333Y-108617619D01*
X120190476Y-108855714D02*
X120190476Y-109522380D01*
X119952380Y-108474761D02*
X119714285Y-109189047D01*
X120333333Y-109189047D01*
%TO.C,C5*%
X128537142Y-94916666D02*
X128584761Y-94964285D01*
X128632380Y-95107142D01*
X128632380Y-95202380D01*
X128584761Y-95345238D01*
X128489523Y-95440476D01*
X128394285Y-95488095D01*
X128203809Y-95535714D01*
X128060952Y-95535714D01*
X127870476Y-95488095D01*
X127775238Y-95440476D01*
X127680000Y-95345238D01*
X127632380Y-95202380D01*
X127632380Y-95107142D01*
X127680000Y-94964285D01*
X127727619Y-94916666D01*
X127632380Y-94011904D02*
X127632380Y-94488095D01*
X128108571Y-94535714D01*
X128060952Y-94488095D01*
X128013333Y-94392857D01*
X128013333Y-94154761D01*
X128060952Y-94059523D01*
X128108571Y-94011904D01*
X128203809Y-93964285D01*
X128441904Y-93964285D01*
X128537142Y-94011904D01*
X128584761Y-94059523D01*
X128632380Y-94154761D01*
X128632380Y-94392857D01*
X128584761Y-94488095D01*
X128537142Y-94535714D01*
%TO.C,C6*%
X128537142Y-99466666D02*
X128584761Y-99514285D01*
X128632380Y-99657142D01*
X128632380Y-99752380D01*
X128584761Y-99895238D01*
X128489523Y-99990476D01*
X128394285Y-100038095D01*
X128203809Y-100085714D01*
X128060952Y-100085714D01*
X127870476Y-100038095D01*
X127775238Y-99990476D01*
X127680000Y-99895238D01*
X127632380Y-99752380D01*
X127632380Y-99657142D01*
X127680000Y-99514285D01*
X127727619Y-99466666D01*
X127632380Y-98609523D02*
X127632380Y-98800000D01*
X127680000Y-98895238D01*
X127727619Y-98942857D01*
X127870476Y-99038095D01*
X128060952Y-99085714D01*
X128441904Y-99085714D01*
X128537142Y-99038095D01*
X128584761Y-98990476D01*
X128632380Y-98895238D01*
X128632380Y-98704761D01*
X128584761Y-98609523D01*
X128537142Y-98561904D01*
X128441904Y-98514285D01*
X128203809Y-98514285D01*
X128108571Y-98561904D01*
X128060952Y-98609523D01*
X128013333Y-98704761D01*
X128013333Y-98895238D01*
X128060952Y-98990476D01*
X128108571Y-99038095D01*
X128203809Y-99085714D01*
%TO.C,C7*%
X128537142Y-105366666D02*
X128584761Y-105414285D01*
X128632380Y-105557142D01*
X128632380Y-105652380D01*
X128584761Y-105795238D01*
X128489523Y-105890476D01*
X128394285Y-105938095D01*
X128203809Y-105985714D01*
X128060952Y-105985714D01*
X127870476Y-105938095D01*
X127775238Y-105890476D01*
X127680000Y-105795238D01*
X127632380Y-105652380D01*
X127632380Y-105557142D01*
X127680000Y-105414285D01*
X127727619Y-105366666D01*
X127632380Y-105033333D02*
X127632380Y-104366666D01*
X128632380Y-104795238D01*
%TO.C,C8*%
X128537142Y-109916666D02*
X128584761Y-109964285D01*
X128632380Y-110107142D01*
X128632380Y-110202380D01*
X128584761Y-110345238D01*
X128489523Y-110440476D01*
X128394285Y-110488095D01*
X128203809Y-110535714D01*
X128060952Y-110535714D01*
X127870476Y-110488095D01*
X127775238Y-110440476D01*
X127680000Y-110345238D01*
X127632380Y-110202380D01*
X127632380Y-110107142D01*
X127680000Y-109964285D01*
X127727619Y-109916666D01*
X128060952Y-109345238D02*
X128013333Y-109440476D01*
X127965714Y-109488095D01*
X127870476Y-109535714D01*
X127822857Y-109535714D01*
X127727619Y-109488095D01*
X127680000Y-109440476D01*
X127632380Y-109345238D01*
X127632380Y-109154761D01*
X127680000Y-109059523D01*
X127727619Y-109011904D01*
X127822857Y-108964285D01*
X127870476Y-108964285D01*
X127965714Y-109011904D01*
X128013333Y-109059523D01*
X128060952Y-109154761D01*
X128060952Y-109345238D01*
X128108571Y-109440476D01*
X128156190Y-109488095D01*
X128251428Y-109535714D01*
X128441904Y-109535714D01*
X128537142Y-109488095D01*
X128584761Y-109440476D01*
X128632380Y-109345238D01*
X128632380Y-109154761D01*
X128584761Y-109059523D01*
X128537142Y-109011904D01*
X128441904Y-108964285D01*
X128251428Y-108964285D01*
X128156190Y-109011904D01*
X128108571Y-109059523D01*
X128060952Y-109154761D01*
%TO.C,FB1*%
X124578571Y-95583333D02*
X124578571Y-95916666D01*
X125102380Y-95916666D02*
X124102380Y-95916666D01*
X124102380Y-95440476D01*
X124578571Y-94726190D02*
X124626190Y-94583333D01*
X124673809Y-94535714D01*
X124769047Y-94488095D01*
X124911904Y-94488095D01*
X125007142Y-94535714D01*
X125054761Y-94583333D01*
X125102380Y-94678571D01*
X125102380Y-95059523D01*
X124102380Y-95059523D01*
X124102380Y-94726190D01*
X124150000Y-94630952D01*
X124197619Y-94583333D01*
X124292857Y-94535714D01*
X124388095Y-94535714D01*
X124483333Y-94583333D01*
X124530952Y-94630952D01*
X124578571Y-94726190D01*
X124578571Y-95059523D01*
X125102380Y-93535714D02*
X125102380Y-94107142D01*
X125102380Y-93821428D02*
X124102380Y-93821428D01*
X124245238Y-93916666D01*
X124340476Y-94011904D01*
X124388095Y-94107142D01*
%TO.C,FB2*%
X124578571Y-100145833D02*
X124578571Y-100479166D01*
X125102380Y-100479166D02*
X124102380Y-100479166D01*
X124102380Y-100002976D01*
X124578571Y-99288690D02*
X124626190Y-99145833D01*
X124673809Y-99098214D01*
X124769047Y-99050595D01*
X124911904Y-99050595D01*
X125007142Y-99098214D01*
X125054761Y-99145833D01*
X125102380Y-99241071D01*
X125102380Y-99622023D01*
X124102380Y-99622023D01*
X124102380Y-99288690D01*
X124150000Y-99193452D01*
X124197619Y-99145833D01*
X124292857Y-99098214D01*
X124388095Y-99098214D01*
X124483333Y-99145833D01*
X124530952Y-99193452D01*
X124578571Y-99288690D01*
X124578571Y-99622023D01*
X124197619Y-98669642D02*
X124150000Y-98622023D01*
X124102380Y-98526785D01*
X124102380Y-98288690D01*
X124150000Y-98193452D01*
X124197619Y-98145833D01*
X124292857Y-98098214D01*
X124388095Y-98098214D01*
X124530952Y-98145833D01*
X125102380Y-98717261D01*
X125102380Y-98098214D01*
%TO.C,FB3*%
X124578571Y-106020833D02*
X124578571Y-106354166D01*
X125102380Y-106354166D02*
X124102380Y-106354166D01*
X124102380Y-105877976D01*
X124578571Y-105163690D02*
X124626190Y-105020833D01*
X124673809Y-104973214D01*
X124769047Y-104925595D01*
X124911904Y-104925595D01*
X125007142Y-104973214D01*
X125054761Y-105020833D01*
X125102380Y-105116071D01*
X125102380Y-105497023D01*
X124102380Y-105497023D01*
X124102380Y-105163690D01*
X124150000Y-105068452D01*
X124197619Y-105020833D01*
X124292857Y-104973214D01*
X124388095Y-104973214D01*
X124483333Y-105020833D01*
X124530952Y-105068452D01*
X124578571Y-105163690D01*
X124578571Y-105497023D01*
X124102380Y-104592261D02*
X124102380Y-103973214D01*
X124483333Y-104306547D01*
X124483333Y-104163690D01*
X124530952Y-104068452D01*
X124578571Y-104020833D01*
X124673809Y-103973214D01*
X124911904Y-103973214D01*
X125007142Y-104020833D01*
X125054761Y-104068452D01*
X125102380Y-104163690D01*
X125102380Y-104449404D01*
X125054761Y-104544642D01*
X125007142Y-104592261D01*
%TO.C,FB4*%
X124578571Y-110583333D02*
X124578571Y-110916666D01*
X125102380Y-110916666D02*
X124102380Y-110916666D01*
X124102380Y-110440476D01*
X124578571Y-109726190D02*
X124626190Y-109583333D01*
X124673809Y-109535714D01*
X124769047Y-109488095D01*
X124911904Y-109488095D01*
X125007142Y-109535714D01*
X125054761Y-109583333D01*
X125102380Y-109678571D01*
X125102380Y-110059523D01*
X124102380Y-110059523D01*
X124102380Y-109726190D01*
X124150000Y-109630952D01*
X124197619Y-109583333D01*
X124292857Y-109535714D01*
X124388095Y-109535714D01*
X124483333Y-109583333D01*
X124530952Y-109630952D01*
X124578571Y-109726190D01*
X124578571Y-110059523D01*
X124435714Y-108630952D02*
X125102380Y-108630952D01*
X124054761Y-108869047D02*
X124769047Y-109107142D01*
X124769047Y-108488095D01*
%TO.C,R1*%
X112333333Y-102702380D02*
X112000000Y-102226190D01*
X111761904Y-102702380D02*
X111761904Y-101702380D01*
X112142857Y-101702380D01*
X112238095Y-101750000D01*
X112285714Y-101797619D01*
X112333333Y-101892857D01*
X112333333Y-102035714D01*
X112285714Y-102130952D01*
X112238095Y-102178571D01*
X112142857Y-102226190D01*
X111761904Y-102226190D01*
X113285714Y-102702380D02*
X112714285Y-102702380D01*
X113000000Y-102702380D02*
X113000000Y-101702380D01*
X112904761Y-101845238D01*
X112809523Y-101940476D01*
X112714285Y-101988095D01*
%TD*%
M02*
