%TF.GenerationSoftware,KiCad,Pcbnew,(5.1.10)-1*%
%TF.CreationDate,2021-10-14T08:55:52-04:00*%
%TF.ProjectId,TP_Final,54505f46-696e-4616-9c2e-6b696361645f,rev?*%
%TF.SameCoordinates,Original*%
%TF.FileFunction,OtherDrawing,Comment*%
%FSLAX46Y46*%
G04 Gerber Fmt 4.6, Leading zero omitted, Abs format (unit mm)*
G04 Created by KiCad (PCBNEW (5.1.10)-1) date 2021-10-14 08:55:52*
%MOMM*%
%LPD*%
G01*
G04 APERTURE LIST*
%ADD10C,0.250000*%
%ADD11C,0.150000*%
G04 APERTURE END LIST*
D10*
X146352976Y-92779761D02*
X146495833Y-92827380D01*
X146733928Y-92827380D01*
X146829166Y-92779761D01*
X146876785Y-92732142D01*
X146924404Y-92636904D01*
X146924404Y-92541666D01*
X146876785Y-92446428D01*
X146829166Y-92398809D01*
X146733928Y-92351190D01*
X146543452Y-92303571D01*
X146448214Y-92255952D01*
X146400595Y-92208333D01*
X146352976Y-92113095D01*
X146352976Y-92017857D01*
X146400595Y-91922619D01*
X146448214Y-91875000D01*
X146543452Y-91827380D01*
X146781547Y-91827380D01*
X146924404Y-91875000D01*
X147210119Y-91827380D02*
X147781547Y-91827380D01*
X147495833Y-92827380D02*
X147495833Y-91827380D01*
X148067261Y-92541666D02*
X148543452Y-92541666D01*
X147972023Y-92827380D02*
X148305357Y-91827380D01*
X148638690Y-92827380D01*
X149543452Y-92732142D02*
X149495833Y-92779761D01*
X149352976Y-92827380D01*
X149257738Y-92827380D01*
X149114880Y-92779761D01*
X149019642Y-92684523D01*
X148972023Y-92589285D01*
X148924404Y-92398809D01*
X148924404Y-92255952D01*
X148972023Y-92065476D01*
X149019642Y-91970238D01*
X149114880Y-91875000D01*
X149257738Y-91827380D01*
X149352976Y-91827380D01*
X149495833Y-91875000D01*
X149543452Y-91922619D01*
X149972023Y-92827380D02*
X149972023Y-91827380D01*
X150543452Y-92827380D02*
X150114880Y-92255952D01*
X150543452Y-91827380D02*
X149972023Y-92398809D01*
X150972023Y-91827380D02*
X150972023Y-92636904D01*
X151019642Y-92732142D01*
X151067261Y-92779761D01*
X151162500Y-92827380D01*
X151352976Y-92827380D01*
X151448214Y-92779761D01*
X151495833Y-92732142D01*
X151543452Y-92636904D01*
X151543452Y-91827380D01*
X152019642Y-92827380D02*
X152019642Y-91827380D01*
X152400595Y-91827380D01*
X152495833Y-91875000D01*
X152543452Y-91922619D01*
X152591071Y-92017857D01*
X152591071Y-92160714D01*
X152543452Y-92255952D01*
X152495833Y-92303571D01*
X152400595Y-92351190D01*
X152019642Y-92351190D01*
X146733928Y-94053571D02*
X146400595Y-94053571D01*
X146400595Y-94577380D02*
X146400595Y-93577380D01*
X146876785Y-93577380D01*
X147257738Y-94482142D02*
X147305357Y-94529761D01*
X147257738Y-94577380D01*
X147210119Y-94529761D01*
X147257738Y-94482142D01*
X147257738Y-94577380D01*
X148305357Y-94482142D02*
X148257738Y-94529761D01*
X148114880Y-94577380D01*
X148019642Y-94577380D01*
X147876785Y-94529761D01*
X147781547Y-94434523D01*
X147733928Y-94339285D01*
X147686309Y-94148809D01*
X147686309Y-94005952D01*
X147733928Y-93815476D01*
X147781547Y-93720238D01*
X147876785Y-93625000D01*
X148019642Y-93577380D01*
X148114880Y-93577380D01*
X148257738Y-93625000D01*
X148305357Y-93672619D01*
X149162500Y-93910714D02*
X149162500Y-94577380D01*
X148733928Y-93910714D02*
X148733928Y-94434523D01*
X148781547Y-94529761D01*
X148876785Y-94577380D01*
X149019642Y-94577380D01*
X149114880Y-94529761D01*
X149162500Y-94482142D01*
X149400595Y-94672619D02*
X150162500Y-94672619D01*
X150162500Y-94672619D02*
X150924404Y-94672619D01*
X150924404Y-94672619D02*
X151686309Y-94672619D01*
X151686309Y-94672619D02*
X152448214Y-94672619D01*
X152448214Y-94672619D02*
X153210119Y-94672619D01*
X153210119Y-94672619D02*
X153972023Y-94672619D01*
X153972023Y-94672619D02*
X154733928Y-94672619D01*
X154733928Y-94672619D02*
X155495833Y-94672619D01*
X155495833Y-94672619D02*
X156257738Y-94672619D01*
X156257738Y-94672619D02*
X157019642Y-94672619D01*
X157019642Y-94672619D02*
X157781547Y-94672619D01*
X157781547Y-94672619D02*
X158543452Y-94672619D01*
X158543452Y-94672619D02*
X159305357Y-94672619D01*
X159305357Y-94672619D02*
X160067261Y-94672619D01*
X160067261Y-94672619D02*
X160829166Y-94672619D01*
X160829166Y-94672619D02*
X161591071Y-94672619D01*
X161591071Y-94672619D02*
X162352976Y-94672619D01*
X162352976Y-94672619D02*
X163114880Y-94672619D01*
X163114880Y-94672619D02*
X163876785Y-94672619D01*
X163876785Y-94672619D02*
X164638690Y-94672619D01*
X164638690Y-94672619D02*
X165400595Y-94672619D01*
X165400595Y-94672619D02*
X166162500Y-94672619D01*
X166162500Y-94672619D02*
X166924404Y-94672619D01*
X166924404Y-94672619D02*
X167686309Y-94672619D01*
X169210119Y-94577380D02*
X168638690Y-94577380D01*
X168924404Y-94577380D02*
X168924404Y-93577380D01*
X168829166Y-93720238D01*
X168733928Y-93815476D01*
X168638690Y-93863095D01*
X169781547Y-94577380D02*
X169686309Y-94529761D01*
X169638690Y-94482142D01*
X169591071Y-94386904D01*
X169591071Y-94101190D01*
X169638690Y-94005952D01*
X169686309Y-93958333D01*
X169781547Y-93910714D01*
X169924404Y-93910714D01*
X170019642Y-93958333D01*
X170067261Y-94005952D01*
X170114880Y-94101190D01*
X170114880Y-94386904D01*
X170067261Y-94482142D01*
X170019642Y-94529761D01*
X169924404Y-94577380D01*
X169781547Y-94577380D01*
X170448214Y-93910714D02*
X170972023Y-93910714D01*
X170448214Y-94577380D01*
X170972023Y-94577380D01*
X146733928Y-97553571D02*
X146876785Y-97601190D01*
X146924404Y-97648809D01*
X146972023Y-97744047D01*
X146972023Y-97886904D01*
X146924404Y-97982142D01*
X146876785Y-98029761D01*
X146781547Y-98077380D01*
X146400595Y-98077380D01*
X146400595Y-97077380D01*
X146733928Y-97077380D01*
X146829166Y-97125000D01*
X146876785Y-97172619D01*
X146924404Y-97267857D01*
X146924404Y-97363095D01*
X146876785Y-97458333D01*
X146829166Y-97505952D01*
X146733928Y-97553571D01*
X146400595Y-97553571D01*
X147400595Y-97982142D02*
X147448214Y-98029761D01*
X147400595Y-98077380D01*
X147352976Y-98029761D01*
X147400595Y-97982142D01*
X147400595Y-98077380D01*
X148448214Y-97982142D02*
X148400595Y-98029761D01*
X148257738Y-98077380D01*
X148162500Y-98077380D01*
X148019642Y-98029761D01*
X147924404Y-97934523D01*
X147876785Y-97839285D01*
X147829166Y-97648809D01*
X147829166Y-97505952D01*
X147876785Y-97315476D01*
X147924404Y-97220238D01*
X148019642Y-97125000D01*
X148162500Y-97077380D01*
X148257738Y-97077380D01*
X148400595Y-97125000D01*
X148448214Y-97172619D01*
X149305357Y-97410714D02*
X149305357Y-98077380D01*
X148876785Y-97410714D02*
X148876785Y-97934523D01*
X148924404Y-98029761D01*
X149019642Y-98077380D01*
X149162500Y-98077380D01*
X149257738Y-98029761D01*
X149305357Y-97982142D01*
X149543452Y-98172619D02*
X150305357Y-98172619D01*
X150305357Y-98172619D02*
X151067261Y-98172619D01*
X151067261Y-98172619D02*
X151829166Y-98172619D01*
X151829166Y-98172619D02*
X152591071Y-98172619D01*
X152591071Y-98172619D02*
X153352976Y-98172619D01*
X153352976Y-98172619D02*
X154114880Y-98172619D01*
X154114880Y-98172619D02*
X154876785Y-98172619D01*
X154876785Y-98172619D02*
X155638690Y-98172619D01*
X155638690Y-98172619D02*
X156400595Y-98172619D01*
X156400595Y-98172619D02*
X157162500Y-98172619D01*
X157162500Y-98172619D02*
X157924404Y-98172619D01*
X157924404Y-98172619D02*
X158686309Y-98172619D01*
X158686309Y-98172619D02*
X159448214Y-98172619D01*
X159448214Y-98172619D02*
X160210119Y-98172619D01*
X160210119Y-98172619D02*
X160972023Y-98172619D01*
X160972023Y-98172619D02*
X161733928Y-98172619D01*
X161733928Y-98172619D02*
X162495833Y-98172619D01*
X162495833Y-98172619D02*
X163257738Y-98172619D01*
X163257738Y-98172619D02*
X164019642Y-98172619D01*
X164019642Y-98172619D02*
X164781547Y-98172619D01*
X164781547Y-98172619D02*
X165543452Y-98172619D01*
X165543452Y-98172619D02*
X166305357Y-98172619D01*
X166305357Y-98172619D02*
X167067261Y-98172619D01*
X167067261Y-98172619D02*
X167829166Y-98172619D01*
X169352976Y-98077380D02*
X168781547Y-98077380D01*
X169067261Y-98077380D02*
X169067261Y-97077380D01*
X168972023Y-97220238D01*
X168876785Y-97315476D01*
X168781547Y-97363095D01*
X169924404Y-98077380D02*
X169829166Y-98029761D01*
X169781547Y-97982142D01*
X169733928Y-97886904D01*
X169733928Y-97601190D01*
X169781547Y-97505952D01*
X169829166Y-97458333D01*
X169924404Y-97410714D01*
X170067261Y-97410714D01*
X170162500Y-97458333D01*
X170210119Y-97505952D01*
X170257738Y-97601190D01*
X170257738Y-97886904D01*
X170210119Y-97982142D01*
X170162500Y-98029761D01*
X170067261Y-98077380D01*
X169924404Y-98077380D01*
X170591071Y-97410714D02*
X171114880Y-97410714D01*
X170591071Y-98077380D01*
X171114880Y-98077380D01*
D11*
X146335595Y-104502380D02*
X146335595Y-103502380D01*
X146668928Y-104216666D01*
X147002261Y-103502380D01*
X147002261Y-104502380D01*
X147478452Y-104502380D02*
X147478452Y-103835714D01*
X147573690Y-103454761D02*
X147430833Y-103597619D01*
X147954642Y-103835714D02*
X147954642Y-104502380D01*
X147954642Y-103930952D02*
X148002261Y-103883333D01*
X148097500Y-103835714D01*
X148240357Y-103835714D01*
X148335595Y-103883333D01*
X148383214Y-103978571D01*
X148383214Y-104502380D01*
X148859404Y-104502380D02*
X148859404Y-103835714D01*
X148859404Y-103502380D02*
X148811785Y-103550000D01*
X148859404Y-103597619D01*
X148907023Y-103550000D01*
X148859404Y-103502380D01*
X148859404Y-103597619D01*
X149335595Y-104502380D02*
X149335595Y-103835714D01*
X149335595Y-103930952D02*
X149383214Y-103883333D01*
X149478452Y-103835714D01*
X149621309Y-103835714D01*
X149716547Y-103883333D01*
X149764166Y-103978571D01*
X149764166Y-104502380D01*
X149764166Y-103978571D02*
X149811785Y-103883333D01*
X149907023Y-103835714D01*
X150049880Y-103835714D01*
X150145119Y-103883333D01*
X150192738Y-103978571D01*
X150192738Y-104502380D01*
X150811785Y-104502380D02*
X150716547Y-104454761D01*
X150668928Y-104407142D01*
X150621309Y-104311904D01*
X150621309Y-104026190D01*
X150668928Y-103930952D01*
X150716547Y-103883333D01*
X150811785Y-103835714D01*
X150954642Y-103835714D01*
X151049880Y-103883333D01*
X151097500Y-103930952D01*
X151145119Y-104026190D01*
X151145119Y-104311904D01*
X151097500Y-104407142D01*
X151049880Y-104454761D01*
X150954642Y-104502380D01*
X150811785Y-104502380D01*
X151526071Y-104454761D02*
X151621309Y-104502380D01*
X151811785Y-104502380D01*
X151907023Y-104454761D01*
X151954642Y-104359523D01*
X151954642Y-104311904D01*
X151907023Y-104216666D01*
X151811785Y-104169047D01*
X151668928Y-104169047D01*
X151573690Y-104121428D01*
X151526071Y-104026190D01*
X151526071Y-103978571D01*
X151573690Y-103883333D01*
X151668928Y-103835714D01*
X151811785Y-103835714D01*
X151907023Y-103883333D01*
X153430833Y-104883333D02*
X153383214Y-104835714D01*
X153287976Y-104692857D01*
X153240357Y-104597619D01*
X153192738Y-104454761D01*
X153145119Y-104216666D01*
X153145119Y-104026190D01*
X153192738Y-103788095D01*
X153240357Y-103645238D01*
X153287976Y-103550000D01*
X153383214Y-103407142D01*
X153430833Y-103359523D01*
X153811785Y-104502380D02*
X153811785Y-103502380D01*
X154145119Y-104216666D01*
X154478452Y-103502380D01*
X154478452Y-104502380D01*
X155383214Y-104502380D02*
X155383214Y-103978571D01*
X155335595Y-103883333D01*
X155240357Y-103835714D01*
X155049880Y-103835714D01*
X154954642Y-103883333D01*
X155383214Y-104454761D02*
X155287976Y-104502380D01*
X155049880Y-104502380D01*
X154954642Y-104454761D01*
X154907023Y-104359523D01*
X154907023Y-104264285D01*
X154954642Y-104169047D01*
X155049880Y-104121428D01*
X155287976Y-104121428D01*
X155383214Y-104073809D01*
X155764166Y-103835714D02*
X156002261Y-104502380D01*
X156240357Y-103835714D02*
X156002261Y-104502380D01*
X155907023Y-104740476D01*
X155859404Y-104788095D01*
X155764166Y-104835714D01*
X157002261Y-104454761D02*
X156907023Y-104502380D01*
X156716547Y-104502380D01*
X156621309Y-104454761D01*
X156573690Y-104359523D01*
X156573690Y-103978571D01*
X156621309Y-103883333D01*
X156716547Y-103835714D01*
X156907023Y-103835714D01*
X157002261Y-103883333D01*
X157049880Y-103978571D01*
X157049880Y-104073809D01*
X156573690Y-104169047D01*
X157478452Y-104502380D02*
X157478452Y-103835714D01*
X157478452Y-104026190D02*
X157526071Y-103930952D01*
X157573690Y-103883333D01*
X157668928Y-103835714D01*
X157764166Y-103835714D01*
X159383214Y-104502380D02*
X158811785Y-104502380D01*
X159097500Y-104502380D02*
X159097500Y-103502380D01*
X159002261Y-103645238D01*
X158907023Y-103740476D01*
X158811785Y-103788095D01*
X160002261Y-103502380D02*
X160097500Y-103502380D01*
X160192738Y-103550000D01*
X160240357Y-103597619D01*
X160287976Y-103692857D01*
X160335595Y-103883333D01*
X160335595Y-104121428D01*
X160287976Y-104311904D01*
X160240357Y-104407142D01*
X160192738Y-104454761D01*
X160097500Y-104502380D01*
X160002261Y-104502380D01*
X159907023Y-104454761D01*
X159859404Y-104407142D01*
X159811785Y-104311904D01*
X159764166Y-104121428D01*
X159764166Y-103883333D01*
X159811785Y-103692857D01*
X159859404Y-103597619D01*
X159907023Y-103550000D01*
X160002261Y-103502380D01*
X160764166Y-104502380D02*
X160764166Y-103835714D01*
X160764166Y-103930952D02*
X160811785Y-103883333D01*
X160907023Y-103835714D01*
X161049880Y-103835714D01*
X161145119Y-103883333D01*
X161192738Y-103978571D01*
X161192738Y-104502380D01*
X161192738Y-103978571D02*
X161240357Y-103883333D01*
X161335595Y-103835714D01*
X161478452Y-103835714D01*
X161573690Y-103883333D01*
X161621309Y-103978571D01*
X161621309Y-104502380D01*
X162097500Y-104502380D02*
X162097500Y-103835714D01*
X162097500Y-103502380D02*
X162049880Y-103550000D01*
X162097500Y-103597619D01*
X162145119Y-103550000D01*
X162097500Y-103502380D01*
X162097500Y-103597619D01*
X162716547Y-104502380D02*
X162621309Y-104454761D01*
X162573690Y-104359523D01*
X162573690Y-103502380D01*
X163049880Y-104454761D02*
X163145119Y-104502380D01*
X163335595Y-104502380D01*
X163430833Y-104454761D01*
X163478452Y-104359523D01*
X163478452Y-104311904D01*
X163430833Y-104216666D01*
X163335595Y-104169047D01*
X163192738Y-104169047D01*
X163097500Y-104121428D01*
X163049880Y-104026190D01*
X163049880Y-103978571D01*
X163097500Y-103883333D01*
X163192738Y-103835714D01*
X163335595Y-103835714D01*
X163430833Y-103883333D01*
X163811785Y-104883333D02*
X163859404Y-104835714D01*
X163954642Y-104692857D01*
X164002261Y-104597619D01*
X164049880Y-104454761D01*
X164097500Y-104216666D01*
X164097500Y-104026190D01*
X164049880Y-103788095D01*
X164002261Y-103645238D01*
X163954642Y-103550000D01*
X163859404Y-103407142D01*
X163811785Y-103359523D01*
X164573690Y-104407142D02*
X164621309Y-104454761D01*
X164573690Y-104502380D01*
X164526071Y-104454761D01*
X164573690Y-104407142D01*
X164573690Y-104502380D01*
X164573690Y-103883333D02*
X164621309Y-103930952D01*
X164573690Y-103978571D01*
X164526071Y-103930952D01*
X164573690Y-103883333D01*
X164573690Y-103978571D01*
X146859404Y-105200000D02*
X146764166Y-105152380D01*
X146621309Y-105152380D01*
X146478452Y-105200000D01*
X146383214Y-105295238D01*
X146335595Y-105390476D01*
X146287976Y-105580952D01*
X146287976Y-105723809D01*
X146335595Y-105914285D01*
X146383214Y-106009523D01*
X146478452Y-106104761D01*
X146621309Y-106152380D01*
X146716547Y-106152380D01*
X146859404Y-106104761D01*
X146907023Y-106057142D01*
X146907023Y-105723809D01*
X146716547Y-105723809D01*
X147335595Y-106152380D02*
X147335595Y-105485714D01*
X147335595Y-105676190D02*
X147383214Y-105580952D01*
X147430833Y-105533333D01*
X147526071Y-105485714D01*
X147621309Y-105485714D01*
X147954642Y-106152380D02*
X147954642Y-105485714D01*
X147954642Y-105152380D02*
X147907023Y-105200000D01*
X147954642Y-105247619D01*
X148002261Y-105200000D01*
X147954642Y-105152380D01*
X147954642Y-105247619D01*
X148573690Y-106152380D02*
X148478452Y-106104761D01*
X148430833Y-106009523D01*
X148430833Y-105152380D01*
X149097500Y-106152380D02*
X149002261Y-106104761D01*
X148954642Y-106009523D01*
X148954642Y-105152380D01*
X149907023Y-106152380D02*
X149907023Y-105628571D01*
X149859404Y-105533333D01*
X149764166Y-105485714D01*
X149573690Y-105485714D01*
X149478452Y-105533333D01*
X149907023Y-106104761D02*
X149811785Y-106152380D01*
X149573690Y-106152380D01*
X149478452Y-106104761D01*
X149430833Y-106009523D01*
X149430833Y-105914285D01*
X149478452Y-105819047D01*
X149573690Y-105771428D01*
X149811785Y-105771428D01*
X149907023Y-105723809D01*
X150335595Y-106104761D02*
X150430833Y-106152380D01*
X150621309Y-106152380D01*
X150716547Y-106104761D01*
X150764166Y-106009523D01*
X150764166Y-105961904D01*
X150716547Y-105866666D01*
X150621309Y-105819047D01*
X150478452Y-105819047D01*
X150383214Y-105771428D01*
X150335595Y-105676190D01*
X150335595Y-105628571D01*
X150383214Y-105533333D01*
X150478452Y-105485714D01*
X150621309Y-105485714D01*
X150716547Y-105533333D01*
X151192738Y-106057142D02*
X151240357Y-106104761D01*
X151192738Y-106152380D01*
X151145119Y-106104761D01*
X151192738Y-106057142D01*
X151192738Y-106152380D01*
X151192738Y-105533333D02*
X151240357Y-105580952D01*
X151192738Y-105628571D01*
X151145119Y-105580952D01*
X151192738Y-105533333D01*
X151192738Y-105628571D01*
X152954642Y-106152380D02*
X152383214Y-106152380D01*
X152668928Y-106152380D02*
X152668928Y-105152380D01*
X152573690Y-105295238D01*
X152478452Y-105390476D01*
X152383214Y-105438095D01*
X153430833Y-106104761D02*
X153430833Y-106152380D01*
X153383214Y-106247619D01*
X153335595Y-106295238D01*
X154049880Y-105152380D02*
X154145119Y-105152380D01*
X154240357Y-105200000D01*
X154287976Y-105247619D01*
X154335595Y-105342857D01*
X154383214Y-105533333D01*
X154383214Y-105771428D01*
X154335595Y-105961904D01*
X154287976Y-106057142D01*
X154240357Y-106104761D01*
X154145119Y-106152380D01*
X154049880Y-106152380D01*
X153954642Y-106104761D01*
X153907023Y-106057142D01*
X153859404Y-105961904D01*
X153811785Y-105771428D01*
X153811785Y-105533333D01*
X153859404Y-105342857D01*
X153907023Y-105247619D01*
X153954642Y-105200000D01*
X154049880Y-105152380D01*
X155002261Y-105152380D02*
X155097500Y-105152380D01*
X155192738Y-105200000D01*
X155240357Y-105247619D01*
X155287976Y-105342857D01*
X155335595Y-105533333D01*
X155335595Y-105771428D01*
X155287976Y-105961904D01*
X155240357Y-106057142D01*
X155192738Y-106104761D01*
X155097500Y-106152380D01*
X155002261Y-106152380D01*
X154907023Y-106104761D01*
X154859404Y-106057142D01*
X154811785Y-105961904D01*
X154764166Y-105771428D01*
X154764166Y-105533333D01*
X154811785Y-105342857D01*
X154859404Y-105247619D01*
X154907023Y-105200000D01*
X155002261Y-105152380D01*
X156526071Y-106152380D02*
X156526071Y-105485714D01*
X156526071Y-105580952D02*
X156573690Y-105533333D01*
X156668928Y-105485714D01*
X156811785Y-105485714D01*
X156907023Y-105533333D01*
X156954642Y-105628571D01*
X156954642Y-106152380D01*
X156954642Y-105628571D02*
X157002261Y-105533333D01*
X157097500Y-105485714D01*
X157240357Y-105485714D01*
X157335595Y-105533333D01*
X157383214Y-105628571D01*
X157383214Y-106152380D01*
X157859404Y-106152380D02*
X157859404Y-105485714D01*
X157859404Y-105580952D02*
X157907023Y-105533333D01*
X158002261Y-105485714D01*
X158145119Y-105485714D01*
X158240357Y-105533333D01*
X158287976Y-105628571D01*
X158287976Y-106152380D01*
X158287976Y-105628571D02*
X158335595Y-105533333D01*
X158430833Y-105485714D01*
X158573690Y-105485714D01*
X158668928Y-105533333D01*
X158716547Y-105628571D01*
X158716547Y-106152380D01*
X159240357Y-106104761D02*
X159240357Y-106152380D01*
X159192738Y-106247619D01*
X159145119Y-106295238D01*
X159192738Y-105533333D02*
X159240357Y-105580952D01*
X159192738Y-105628571D01*
X159145119Y-105580952D01*
X159192738Y-105533333D01*
X159192738Y-105628571D01*
X160621309Y-105152380D02*
X160716547Y-105152380D01*
X160811785Y-105200000D01*
X160859404Y-105247619D01*
X160907023Y-105342857D01*
X160954642Y-105533333D01*
X160954642Y-105771428D01*
X160907023Y-105961904D01*
X160859404Y-106057142D01*
X160811785Y-106104761D01*
X160716547Y-106152380D01*
X160621309Y-106152380D01*
X160526071Y-106104761D01*
X160478452Y-106057142D01*
X160430833Y-105961904D01*
X160383214Y-105771428D01*
X160383214Y-105533333D01*
X160430833Y-105342857D01*
X160478452Y-105247619D01*
X160526071Y-105200000D01*
X160621309Y-105152380D01*
X161430833Y-106104761D02*
X161430833Y-106152380D01*
X161383214Y-106247619D01*
X161335595Y-106295238D01*
X162335595Y-105152380D02*
X161859404Y-105152380D01*
X161811785Y-105628571D01*
X161859404Y-105580952D01*
X161954642Y-105533333D01*
X162192738Y-105533333D01*
X162287976Y-105580952D01*
X162335595Y-105628571D01*
X162383214Y-105723809D01*
X162383214Y-105961904D01*
X162335595Y-106057142D01*
X162287976Y-106104761D01*
X162192738Y-106152380D01*
X161954642Y-106152380D01*
X161859404Y-106104761D01*
X161811785Y-106057142D01*
X163002261Y-105152380D02*
X163097500Y-105152380D01*
X163192738Y-105200000D01*
X163240357Y-105247619D01*
X163287976Y-105342857D01*
X163335595Y-105533333D01*
X163335595Y-105771428D01*
X163287976Y-105961904D01*
X163240357Y-106057142D01*
X163192738Y-106104761D01*
X163097500Y-106152380D01*
X163002261Y-106152380D01*
X162907023Y-106104761D01*
X162859404Y-106057142D01*
X162811785Y-105961904D01*
X162764166Y-105771428D01*
X162764166Y-105533333D01*
X162811785Y-105342857D01*
X162859404Y-105247619D01*
X162907023Y-105200000D01*
X163002261Y-105152380D01*
X164526071Y-106152380D02*
X164526071Y-105485714D01*
X164526071Y-105580952D02*
X164573690Y-105533333D01*
X164668928Y-105485714D01*
X164811785Y-105485714D01*
X164907023Y-105533333D01*
X164954642Y-105628571D01*
X164954642Y-106152380D01*
X164954642Y-105628571D02*
X165002261Y-105533333D01*
X165097500Y-105485714D01*
X165240357Y-105485714D01*
X165335595Y-105533333D01*
X165383214Y-105628571D01*
X165383214Y-106152380D01*
X165859404Y-106152380D02*
X165859404Y-105485714D01*
X165859404Y-105580952D02*
X165907023Y-105533333D01*
X166002261Y-105485714D01*
X166145119Y-105485714D01*
X166240357Y-105533333D01*
X166287976Y-105628571D01*
X166287976Y-106152380D01*
X166287976Y-105628571D02*
X166335595Y-105533333D01*
X166430833Y-105485714D01*
X166573690Y-105485714D01*
X166668928Y-105533333D01*
X166716547Y-105628571D01*
X166716547Y-106152380D01*
X167240357Y-106104761D02*
X167240357Y-106152380D01*
X167192738Y-106247619D01*
X167145119Y-106295238D01*
X167192738Y-105533333D02*
X167240357Y-105580952D01*
X167192738Y-105628571D01*
X167145119Y-105580952D01*
X167192738Y-105533333D01*
X167192738Y-105628571D01*
X168621309Y-105152380D02*
X168716547Y-105152380D01*
X168811785Y-105200000D01*
X168859404Y-105247619D01*
X168907023Y-105342857D01*
X168954642Y-105533333D01*
X168954642Y-105771428D01*
X168907023Y-105961904D01*
X168859404Y-106057142D01*
X168811785Y-106104761D01*
X168716547Y-106152380D01*
X168621309Y-106152380D01*
X168526071Y-106104761D01*
X168478452Y-106057142D01*
X168430833Y-105961904D01*
X168383214Y-105771428D01*
X168383214Y-105533333D01*
X168430833Y-105342857D01*
X168478452Y-105247619D01*
X168526071Y-105200000D01*
X168621309Y-105152380D01*
X169430833Y-106104761D02*
X169430833Y-106152380D01*
X169383214Y-106247619D01*
X169335595Y-106295238D01*
X169811785Y-105247619D02*
X169859404Y-105200000D01*
X169954642Y-105152380D01*
X170192738Y-105152380D01*
X170287976Y-105200000D01*
X170335595Y-105247619D01*
X170383214Y-105342857D01*
X170383214Y-105438095D01*
X170335595Y-105580952D01*
X169764166Y-106152380D01*
X170383214Y-106152380D01*
X171287976Y-105152380D02*
X170811785Y-105152380D01*
X170764166Y-105628571D01*
X170811785Y-105580952D01*
X170907023Y-105533333D01*
X171145119Y-105533333D01*
X171240357Y-105580952D01*
X171287976Y-105628571D01*
X171335595Y-105723809D01*
X171335595Y-105961904D01*
X171287976Y-106057142D01*
X171240357Y-106104761D01*
X171145119Y-106152380D01*
X170907023Y-106152380D01*
X170811785Y-106104761D01*
X170764166Y-106057142D01*
X172526071Y-106152380D02*
X172526071Y-105485714D01*
X172526071Y-105580952D02*
X172573690Y-105533333D01*
X172668928Y-105485714D01*
X172811785Y-105485714D01*
X172907023Y-105533333D01*
X172954642Y-105628571D01*
X172954642Y-106152380D01*
X172954642Y-105628571D02*
X173002261Y-105533333D01*
X173097500Y-105485714D01*
X173240357Y-105485714D01*
X173335595Y-105533333D01*
X173383214Y-105628571D01*
X173383214Y-106152380D01*
X173859404Y-106152380D02*
X173859404Y-105485714D01*
X173859404Y-105580952D02*
X173907023Y-105533333D01*
X174002261Y-105485714D01*
X174145119Y-105485714D01*
X174240357Y-105533333D01*
X174287976Y-105628571D01*
X174287976Y-106152380D01*
X174287976Y-105628571D02*
X174335595Y-105533333D01*
X174430833Y-105485714D01*
X174573690Y-105485714D01*
X174668928Y-105533333D01*
X174716547Y-105628571D01*
X174716547Y-106152380D01*
X146192738Y-106802380D02*
X146526071Y-107802380D01*
X146859404Y-106802380D01*
X147192738Y-107802380D02*
X147192738Y-107135714D01*
X147287976Y-106754761D02*
X147145119Y-106897619D01*
X148097500Y-107802380D02*
X148097500Y-107278571D01*
X148049880Y-107183333D01*
X147954642Y-107135714D01*
X147764166Y-107135714D01*
X147668928Y-107183333D01*
X148097500Y-107754761D02*
X148002261Y-107802380D01*
X147764166Y-107802380D01*
X147668928Y-107754761D01*
X147621309Y-107659523D01*
X147621309Y-107564285D01*
X147668928Y-107469047D01*
X147764166Y-107421428D01*
X148002261Y-107421428D01*
X148097500Y-107373809D01*
X148573690Y-107707142D02*
X148621309Y-107754761D01*
X148573690Y-107802380D01*
X148526071Y-107754761D01*
X148573690Y-107707142D01*
X148573690Y-107802380D01*
X148573690Y-107183333D02*
X148621309Y-107230952D01*
X148573690Y-107278571D01*
X148526071Y-107230952D01*
X148573690Y-107183333D01*
X148573690Y-107278571D01*
X150335595Y-107802380D02*
X149764166Y-107802380D01*
X150049880Y-107802380D02*
X150049880Y-106802380D01*
X149954642Y-106945238D01*
X149859404Y-107040476D01*
X149764166Y-107088095D01*
X150811785Y-107754761D02*
X150811785Y-107802380D01*
X150764166Y-107897619D01*
X150716547Y-107945238D01*
X151668928Y-106802380D02*
X151478452Y-106802380D01*
X151383214Y-106850000D01*
X151335595Y-106897619D01*
X151240357Y-107040476D01*
X151192738Y-107230952D01*
X151192738Y-107611904D01*
X151240357Y-107707142D01*
X151287976Y-107754761D01*
X151383214Y-107802380D01*
X151573690Y-107802380D01*
X151668928Y-107754761D01*
X151716547Y-107707142D01*
X151764166Y-107611904D01*
X151764166Y-107373809D01*
X151716547Y-107278571D01*
X151668928Y-107230952D01*
X151573690Y-107183333D01*
X151383214Y-107183333D01*
X151287976Y-107230952D01*
X151240357Y-107278571D01*
X151192738Y-107373809D01*
X152383214Y-106802380D02*
X152478452Y-106802380D01*
X152573690Y-106850000D01*
X152621309Y-106897619D01*
X152668928Y-106992857D01*
X152716547Y-107183333D01*
X152716547Y-107421428D01*
X152668928Y-107611904D01*
X152621309Y-107707142D01*
X152573690Y-107754761D01*
X152478452Y-107802380D01*
X152383214Y-107802380D01*
X152287976Y-107754761D01*
X152240357Y-107707142D01*
X152192738Y-107611904D01*
X152145119Y-107421428D01*
X152145119Y-107183333D01*
X152192738Y-106992857D01*
X152240357Y-106897619D01*
X152287976Y-106850000D01*
X152383214Y-106802380D01*
X154621309Y-106754761D02*
X153764166Y-108040476D01*
X155907023Y-106802380D02*
X156002261Y-106802380D01*
X156097500Y-106850000D01*
X156145119Y-106897619D01*
X156192738Y-106992857D01*
X156240357Y-107183333D01*
X156240357Y-107421428D01*
X156192738Y-107611904D01*
X156145119Y-107707142D01*
X156097500Y-107754761D01*
X156002261Y-107802380D01*
X155907023Y-107802380D01*
X155811785Y-107754761D01*
X155764166Y-107707142D01*
X155716547Y-107611904D01*
X155668928Y-107421428D01*
X155668928Y-107183333D01*
X155716547Y-106992857D01*
X155764166Y-106897619D01*
X155811785Y-106850000D01*
X155907023Y-106802380D01*
X156716547Y-107754761D02*
X156716547Y-107802380D01*
X156668928Y-107897619D01*
X156621309Y-107945238D01*
X157287976Y-107230952D02*
X157192738Y-107183333D01*
X157145119Y-107135714D01*
X157097500Y-107040476D01*
X157097500Y-106992857D01*
X157145119Y-106897619D01*
X157192738Y-106850000D01*
X157287976Y-106802380D01*
X157478452Y-106802380D01*
X157573690Y-106850000D01*
X157621309Y-106897619D01*
X157668928Y-106992857D01*
X157668928Y-107040476D01*
X157621309Y-107135714D01*
X157573690Y-107183333D01*
X157478452Y-107230952D01*
X157287976Y-107230952D01*
X157192738Y-107278571D01*
X157145119Y-107326190D01*
X157097500Y-107421428D01*
X157097500Y-107611904D01*
X157145119Y-107707142D01*
X157192738Y-107754761D01*
X157287976Y-107802380D01*
X157478452Y-107802380D01*
X157573690Y-107754761D01*
X157621309Y-107707142D01*
X157668928Y-107611904D01*
X157668928Y-107421428D01*
X157621309Y-107326190D01*
X157573690Y-107278571D01*
X157478452Y-107230952D01*
X158287976Y-106802380D02*
X158383214Y-106802380D01*
X158478452Y-106850000D01*
X158526071Y-106897619D01*
X158573690Y-106992857D01*
X158621309Y-107183333D01*
X158621309Y-107421428D01*
X158573690Y-107611904D01*
X158526071Y-107707142D01*
X158478452Y-107754761D01*
X158383214Y-107802380D01*
X158287976Y-107802380D01*
X158192738Y-107754761D01*
X158145119Y-107707142D01*
X158097500Y-107611904D01*
X158049880Y-107421428D01*
X158049880Y-107183333D01*
X158097500Y-106992857D01*
X158145119Y-106897619D01*
X158192738Y-106850000D01*
X158287976Y-106802380D01*
X159811785Y-107802380D02*
X159811785Y-107135714D01*
X159811785Y-107230952D02*
X159859404Y-107183333D01*
X159954642Y-107135714D01*
X160097500Y-107135714D01*
X160192738Y-107183333D01*
X160240357Y-107278571D01*
X160240357Y-107802380D01*
X160240357Y-107278571D02*
X160287976Y-107183333D01*
X160383214Y-107135714D01*
X160526071Y-107135714D01*
X160621309Y-107183333D01*
X160668928Y-107278571D01*
X160668928Y-107802380D01*
X161145119Y-107802380D02*
X161145119Y-107135714D01*
X161145119Y-107230952D02*
X161192738Y-107183333D01*
X161287976Y-107135714D01*
X161430833Y-107135714D01*
X161526071Y-107183333D01*
X161573690Y-107278571D01*
X161573690Y-107802380D01*
X161573690Y-107278571D02*
X161621309Y-107183333D01*
X161716547Y-107135714D01*
X161859404Y-107135714D01*
X161954642Y-107183333D01*
X162002261Y-107278571D01*
X162002261Y-107802380D01*
X146335595Y-109452380D02*
X146335595Y-108452380D01*
X146668928Y-109166666D01*
X147002261Y-108452380D01*
X147002261Y-109452380D01*
X147907023Y-109452380D02*
X147907023Y-108928571D01*
X147859404Y-108833333D01*
X147764166Y-108785714D01*
X147573690Y-108785714D01*
X147478452Y-108833333D01*
X147907023Y-109404761D02*
X147811785Y-109452380D01*
X147573690Y-109452380D01*
X147478452Y-109404761D01*
X147430833Y-109309523D01*
X147430833Y-109214285D01*
X147478452Y-109119047D01*
X147573690Y-109071428D01*
X147811785Y-109071428D01*
X147907023Y-109023809D01*
X147764166Y-108404761D02*
X147621309Y-108547619D01*
X148383214Y-109452380D02*
X148383214Y-108785714D01*
X148383214Y-108976190D02*
X148430833Y-108880952D01*
X148478452Y-108833333D01*
X148573690Y-108785714D01*
X148668928Y-108785714D01*
X149430833Y-108785714D02*
X149430833Y-109595238D01*
X149383214Y-109690476D01*
X149335595Y-109738095D01*
X149240357Y-109785714D01*
X149097500Y-109785714D01*
X149002261Y-109738095D01*
X149430833Y-109404761D02*
X149335595Y-109452380D01*
X149145119Y-109452380D01*
X149049880Y-109404761D01*
X149002261Y-109357142D01*
X148954642Y-109261904D01*
X148954642Y-108976190D01*
X149002261Y-108880952D01*
X149049880Y-108833333D01*
X149145119Y-108785714D01*
X149335595Y-108785714D01*
X149430833Y-108833333D01*
X150287976Y-109404761D02*
X150192738Y-109452380D01*
X150002261Y-109452380D01*
X149907023Y-109404761D01*
X149859404Y-109309523D01*
X149859404Y-108928571D01*
X149907023Y-108833333D01*
X150002261Y-108785714D01*
X150192738Y-108785714D01*
X150287976Y-108833333D01*
X150335595Y-108928571D01*
X150335595Y-109023809D01*
X149859404Y-109119047D01*
X150764166Y-108785714D02*
X150764166Y-109452380D01*
X150764166Y-108880952D02*
X150811785Y-108833333D01*
X150907023Y-108785714D01*
X151049880Y-108785714D01*
X151145119Y-108833333D01*
X151192738Y-108928571D01*
X151192738Y-109452380D01*
X151668928Y-109357142D02*
X151716547Y-109404761D01*
X151668928Y-109452380D01*
X151621309Y-109404761D01*
X151668928Y-109357142D01*
X151668928Y-109452380D01*
X151668928Y-108833333D02*
X151716547Y-108880952D01*
X151668928Y-108928571D01*
X151621309Y-108880952D01*
X151668928Y-108833333D01*
X151668928Y-108928571D01*
X153097500Y-108452380D02*
X153192738Y-108452380D01*
X153287976Y-108500000D01*
X153335595Y-108547619D01*
X153383214Y-108642857D01*
X153430833Y-108833333D01*
X153430833Y-109071428D01*
X153383214Y-109261904D01*
X153335595Y-109357142D01*
X153287976Y-109404761D01*
X153192738Y-109452380D01*
X153097500Y-109452380D01*
X153002261Y-109404761D01*
X152954642Y-109357142D01*
X152907023Y-109261904D01*
X152859404Y-109071428D01*
X152859404Y-108833333D01*
X152907023Y-108642857D01*
X152954642Y-108547619D01*
X153002261Y-108500000D01*
X153097500Y-108452380D01*
X153907023Y-109404761D02*
X153907023Y-109452380D01*
X153859404Y-109547619D01*
X153811785Y-109595238D01*
X154811785Y-108452380D02*
X154335595Y-108452380D01*
X154287976Y-108928571D01*
X154335595Y-108880952D01*
X154430833Y-108833333D01*
X154668928Y-108833333D01*
X154764166Y-108880952D01*
X154811785Y-108928571D01*
X154859404Y-109023809D01*
X154859404Y-109261904D01*
X154811785Y-109357142D01*
X154764166Y-109404761D01*
X154668928Y-109452380D01*
X154430833Y-109452380D01*
X154335595Y-109404761D01*
X154287976Y-109357142D01*
X155478452Y-108452380D02*
X155573690Y-108452380D01*
X155668928Y-108500000D01*
X155716547Y-108547619D01*
X155764166Y-108642857D01*
X155811785Y-108833333D01*
X155811785Y-109071428D01*
X155764166Y-109261904D01*
X155716547Y-109357142D01*
X155668928Y-109404761D01*
X155573690Y-109452380D01*
X155478452Y-109452380D01*
X155383214Y-109404761D01*
X155335595Y-109357142D01*
X155287976Y-109261904D01*
X155240357Y-109071428D01*
X155240357Y-108833333D01*
X155287976Y-108642857D01*
X155335595Y-108547619D01*
X155383214Y-108500000D01*
X155478452Y-108452380D01*
X157002261Y-109452380D02*
X157002261Y-108785714D01*
X157002261Y-108880952D02*
X157049880Y-108833333D01*
X157145119Y-108785714D01*
X157287976Y-108785714D01*
X157383214Y-108833333D01*
X157430833Y-108928571D01*
X157430833Y-109452380D01*
X157430833Y-108928571D02*
X157478452Y-108833333D01*
X157573690Y-108785714D01*
X157716547Y-108785714D01*
X157811785Y-108833333D01*
X157859404Y-108928571D01*
X157859404Y-109452380D01*
X158335595Y-109452380D02*
X158335595Y-108785714D01*
X158335595Y-108880952D02*
X158383214Y-108833333D01*
X158478452Y-108785714D01*
X158621309Y-108785714D01*
X158716547Y-108833333D01*
X158764166Y-108928571D01*
X158764166Y-109452380D01*
X158764166Y-108928571D02*
X158811785Y-108833333D01*
X158907023Y-108785714D01*
X159049880Y-108785714D01*
X159145119Y-108833333D01*
X159192738Y-108928571D01*
X159192738Y-109452380D01*
X146335595Y-111102380D02*
X146335595Y-110102380D01*
X146716547Y-110102380D01*
X146811785Y-110150000D01*
X146859404Y-110197619D01*
X146907023Y-110292857D01*
X146907023Y-110435714D01*
X146859404Y-110530952D01*
X146811785Y-110578571D01*
X146716547Y-110626190D01*
X146335595Y-110626190D01*
X147335595Y-111102380D02*
X147335595Y-110435714D01*
X147335595Y-110102380D02*
X147287976Y-110150000D01*
X147335595Y-110197619D01*
X147383214Y-110150000D01*
X147335595Y-110102380D01*
X147335595Y-110197619D01*
X147764166Y-111054761D02*
X147859404Y-111102380D01*
X148049880Y-111102380D01*
X148145119Y-111054761D01*
X148192738Y-110959523D01*
X148192738Y-110911904D01*
X148145119Y-110816666D01*
X148049880Y-110769047D01*
X147907023Y-110769047D01*
X147811785Y-110721428D01*
X147764166Y-110626190D01*
X147764166Y-110578571D01*
X147811785Y-110483333D01*
X147907023Y-110435714D01*
X148049880Y-110435714D01*
X148145119Y-110483333D01*
X148478452Y-110435714D02*
X148859404Y-110435714D01*
X148621309Y-110102380D02*
X148621309Y-110959523D01*
X148668928Y-111054761D01*
X148764166Y-111102380D01*
X148859404Y-111102380D01*
X149621309Y-111102380D02*
X149621309Y-110578571D01*
X149573690Y-110483333D01*
X149478452Y-110435714D01*
X149287976Y-110435714D01*
X149192738Y-110483333D01*
X149621309Y-111054761D02*
X149526071Y-111102380D01*
X149287976Y-111102380D01*
X149192738Y-111054761D01*
X149145119Y-110959523D01*
X149145119Y-110864285D01*
X149192738Y-110769047D01*
X149287976Y-110721428D01*
X149526071Y-110721428D01*
X149621309Y-110673809D01*
X150097500Y-111007142D02*
X150145119Y-111054761D01*
X150097500Y-111102380D01*
X150049880Y-111054761D01*
X150097500Y-111007142D01*
X150097500Y-111102380D01*
X150097500Y-110483333D02*
X150145119Y-110530952D01*
X150097500Y-110578571D01*
X150049880Y-110530952D01*
X150097500Y-110483333D01*
X150097500Y-110578571D01*
X151526071Y-110102380D02*
X151621309Y-110102380D01*
X151716547Y-110150000D01*
X151764166Y-110197619D01*
X151811785Y-110292857D01*
X151859404Y-110483333D01*
X151859404Y-110721428D01*
X151811785Y-110911904D01*
X151764166Y-111007142D01*
X151716547Y-111054761D01*
X151621309Y-111102380D01*
X151526071Y-111102380D01*
X151430833Y-111054761D01*
X151383214Y-111007142D01*
X151335595Y-110911904D01*
X151287976Y-110721428D01*
X151287976Y-110483333D01*
X151335595Y-110292857D01*
X151383214Y-110197619D01*
X151430833Y-110150000D01*
X151526071Y-110102380D01*
X152335595Y-111054761D02*
X152335595Y-111102380D01*
X152287976Y-111197619D01*
X152240357Y-111245238D01*
X152716547Y-110197619D02*
X152764166Y-110150000D01*
X152859404Y-110102380D01*
X153097500Y-110102380D01*
X153192738Y-110150000D01*
X153240357Y-110197619D01*
X153287976Y-110292857D01*
X153287976Y-110388095D01*
X153240357Y-110530952D01*
X152668928Y-111102380D01*
X153287976Y-111102380D01*
X154192738Y-110102380D02*
X153716547Y-110102380D01*
X153668928Y-110578571D01*
X153716547Y-110530952D01*
X153811785Y-110483333D01*
X154049880Y-110483333D01*
X154145119Y-110530952D01*
X154192738Y-110578571D01*
X154240357Y-110673809D01*
X154240357Y-110911904D01*
X154192738Y-111007142D01*
X154145119Y-111054761D01*
X154049880Y-111102380D01*
X153811785Y-111102380D01*
X153716547Y-111054761D01*
X153668928Y-111007142D01*
X155430833Y-111102380D02*
X155430833Y-110435714D01*
X155430833Y-110530952D02*
X155478452Y-110483333D01*
X155573690Y-110435714D01*
X155716547Y-110435714D01*
X155811785Y-110483333D01*
X155859404Y-110578571D01*
X155859404Y-111102380D01*
X155859404Y-110578571D02*
X155907023Y-110483333D01*
X156002261Y-110435714D01*
X156145119Y-110435714D01*
X156240357Y-110483333D01*
X156287976Y-110578571D01*
X156287976Y-111102380D01*
X156764166Y-111102380D02*
X156764166Y-110435714D01*
X156764166Y-110530952D02*
X156811785Y-110483333D01*
X156907023Y-110435714D01*
X157049880Y-110435714D01*
X157145119Y-110483333D01*
X157192738Y-110578571D01*
X157192738Y-111102380D01*
X157192738Y-110578571D02*
X157240357Y-110483333D01*
X157335595Y-110435714D01*
X157478452Y-110435714D01*
X157573690Y-110483333D01*
X157621309Y-110578571D01*
X157621309Y-111102380D01*
X158145119Y-111054761D02*
X158145119Y-111102380D01*
X158097500Y-111197619D01*
X158049880Y-111245238D01*
X158097500Y-110483333D02*
X158145119Y-110530952D01*
X158097500Y-110578571D01*
X158049880Y-110530952D01*
X158097500Y-110483333D01*
X158097500Y-110578571D01*
X159526071Y-110102380D02*
X159621309Y-110102380D01*
X159716547Y-110150000D01*
X159764166Y-110197619D01*
X159811785Y-110292857D01*
X159859404Y-110483333D01*
X159859404Y-110721428D01*
X159811785Y-110911904D01*
X159764166Y-111007142D01*
X159716547Y-111054761D01*
X159621309Y-111102380D01*
X159526071Y-111102380D01*
X159430833Y-111054761D01*
X159383214Y-111007142D01*
X159335595Y-110911904D01*
X159287976Y-110721428D01*
X159287976Y-110483333D01*
X159335595Y-110292857D01*
X159383214Y-110197619D01*
X159430833Y-110150000D01*
X159526071Y-110102380D01*
X160335595Y-111054761D02*
X160335595Y-111102380D01*
X160287976Y-111197619D01*
X160240357Y-111245238D01*
X160907023Y-110530952D02*
X160811785Y-110483333D01*
X160764166Y-110435714D01*
X160716547Y-110340476D01*
X160716547Y-110292857D01*
X160764166Y-110197619D01*
X160811785Y-110150000D01*
X160907023Y-110102380D01*
X161097500Y-110102380D01*
X161192738Y-110150000D01*
X161240357Y-110197619D01*
X161287976Y-110292857D01*
X161287976Y-110340476D01*
X161240357Y-110435714D01*
X161192738Y-110483333D01*
X161097500Y-110530952D01*
X160907023Y-110530952D01*
X160811785Y-110578571D01*
X160764166Y-110626190D01*
X160716547Y-110721428D01*
X160716547Y-110911904D01*
X160764166Y-111007142D01*
X160811785Y-111054761D01*
X160907023Y-111102380D01*
X161097500Y-111102380D01*
X161192738Y-111054761D01*
X161240357Y-111007142D01*
X161287976Y-110911904D01*
X161287976Y-110721428D01*
X161240357Y-110626190D01*
X161192738Y-110578571D01*
X161097500Y-110530952D01*
X161907023Y-110102380D02*
X162002261Y-110102380D01*
X162097500Y-110150000D01*
X162145119Y-110197619D01*
X162192738Y-110292857D01*
X162240357Y-110483333D01*
X162240357Y-110721428D01*
X162192738Y-110911904D01*
X162145119Y-111007142D01*
X162097500Y-111054761D01*
X162002261Y-111102380D01*
X161907023Y-111102380D01*
X161811785Y-111054761D01*
X161764166Y-111007142D01*
X161716547Y-110911904D01*
X161668928Y-110721428D01*
X161668928Y-110483333D01*
X161716547Y-110292857D01*
X161764166Y-110197619D01*
X161811785Y-110150000D01*
X161907023Y-110102380D01*
X163430833Y-111102380D02*
X163430833Y-110435714D01*
X163430833Y-110530952D02*
X163478452Y-110483333D01*
X163573690Y-110435714D01*
X163716547Y-110435714D01*
X163811785Y-110483333D01*
X163859404Y-110578571D01*
X163859404Y-111102380D01*
X163859404Y-110578571D02*
X163907023Y-110483333D01*
X164002261Y-110435714D01*
X164145119Y-110435714D01*
X164240357Y-110483333D01*
X164287976Y-110578571D01*
X164287976Y-111102380D01*
X164764166Y-111102380D02*
X164764166Y-110435714D01*
X164764166Y-110530952D02*
X164811785Y-110483333D01*
X164907023Y-110435714D01*
X165049880Y-110435714D01*
X165145119Y-110483333D01*
X165192738Y-110578571D01*
X165192738Y-111102380D01*
X165192738Y-110578571D02*
X165240357Y-110483333D01*
X165335595Y-110435714D01*
X165478452Y-110435714D01*
X165573690Y-110483333D01*
X165621309Y-110578571D01*
X165621309Y-111102380D01*
X146192738Y-111752380D02*
X146764166Y-111752380D01*
X146478452Y-112752380D02*
X146478452Y-111752380D01*
X147478452Y-112704761D02*
X147383214Y-112752380D01*
X147192738Y-112752380D01*
X147097500Y-112704761D01*
X147049880Y-112609523D01*
X147049880Y-112228571D01*
X147097500Y-112133333D01*
X147192738Y-112085714D01*
X147383214Y-112085714D01*
X147478452Y-112133333D01*
X147526071Y-112228571D01*
X147526071Y-112323809D01*
X147049880Y-112419047D01*
X147954642Y-112752380D02*
X147954642Y-112085714D01*
X147954642Y-112276190D02*
X148002261Y-112180952D01*
X148049880Y-112133333D01*
X148145119Y-112085714D01*
X148240357Y-112085714D01*
X148573690Y-112752380D02*
X148573690Y-112085714D01*
X148573690Y-112180952D02*
X148621309Y-112133333D01*
X148716547Y-112085714D01*
X148859404Y-112085714D01*
X148954642Y-112133333D01*
X149002261Y-112228571D01*
X149002261Y-112752380D01*
X149002261Y-112228571D02*
X149049880Y-112133333D01*
X149145119Y-112085714D01*
X149287976Y-112085714D01*
X149383214Y-112133333D01*
X149430833Y-112228571D01*
X149430833Y-112752380D01*
X149907023Y-112752380D02*
X149907023Y-112085714D01*
X149907023Y-111752380D02*
X149859404Y-111800000D01*
X149907023Y-111847619D01*
X149954642Y-111800000D01*
X149907023Y-111752380D01*
X149907023Y-111847619D01*
X150383214Y-112085714D02*
X150383214Y-112752380D01*
X150383214Y-112180952D02*
X150430833Y-112133333D01*
X150526071Y-112085714D01*
X150668928Y-112085714D01*
X150764166Y-112133333D01*
X150811785Y-112228571D01*
X150811785Y-112752380D01*
X151716547Y-112752380D02*
X151716547Y-112228571D01*
X151668928Y-112133333D01*
X151573690Y-112085714D01*
X151383214Y-112085714D01*
X151287976Y-112133333D01*
X151716547Y-112704761D02*
X151621309Y-112752380D01*
X151383214Y-112752380D01*
X151287976Y-112704761D01*
X151240357Y-112609523D01*
X151240357Y-112514285D01*
X151287976Y-112419047D01*
X151383214Y-112371428D01*
X151621309Y-112371428D01*
X151716547Y-112323809D01*
X152621309Y-112704761D02*
X152526071Y-112752380D01*
X152335595Y-112752380D01*
X152240357Y-112704761D01*
X152192738Y-112657142D01*
X152145119Y-112561904D01*
X152145119Y-112276190D01*
X152192738Y-112180952D01*
X152240357Y-112133333D01*
X152335595Y-112085714D01*
X152526071Y-112085714D01*
X152621309Y-112133333D01*
X153049880Y-112752380D02*
X153049880Y-112085714D01*
X153049880Y-111752380D02*
X153002261Y-111800000D01*
X153049880Y-111847619D01*
X153097500Y-111800000D01*
X153049880Y-111752380D01*
X153049880Y-111847619D01*
X153668928Y-112752380D02*
X153573690Y-112704761D01*
X153526071Y-112657142D01*
X153478452Y-112561904D01*
X153478452Y-112276190D01*
X153526071Y-112180952D01*
X153573690Y-112133333D01*
X153668928Y-112085714D01*
X153811785Y-112085714D01*
X153907023Y-112133333D01*
X153954642Y-112180952D01*
X154002261Y-112276190D01*
X154002261Y-112561904D01*
X153954642Y-112657142D01*
X153907023Y-112704761D01*
X153811785Y-112752380D01*
X153668928Y-112752380D01*
X153859404Y-111704761D02*
X153716547Y-111847619D01*
X154430833Y-112085714D02*
X154430833Y-112752380D01*
X154430833Y-112180952D02*
X154478452Y-112133333D01*
X154573690Y-112085714D01*
X154716547Y-112085714D01*
X154811785Y-112133333D01*
X154859404Y-112228571D01*
X154859404Y-112752380D01*
X155335595Y-112657142D02*
X155383214Y-112704761D01*
X155335595Y-112752380D01*
X155287976Y-112704761D01*
X155335595Y-112657142D01*
X155335595Y-112752380D01*
X155335595Y-112133333D02*
X155383214Y-112180952D01*
X155335595Y-112228571D01*
X155287976Y-112180952D01*
X155335595Y-112133333D01*
X155335595Y-112228571D01*
X156573690Y-112752380D02*
X156573690Y-111752380D01*
X156573690Y-112228571D02*
X157145119Y-112228571D01*
X157145119Y-112752380D02*
X157145119Y-111752380D01*
X157573690Y-112466666D02*
X158049880Y-112466666D01*
X157478452Y-112752380D02*
X157811785Y-111752380D01*
X158145119Y-112752380D01*
X158430833Y-112704761D02*
X158573690Y-112752380D01*
X158811785Y-112752380D01*
X158907023Y-112704761D01*
X158954642Y-112657142D01*
X159002261Y-112561904D01*
X159002261Y-112466666D01*
X158954642Y-112371428D01*
X158907023Y-112323809D01*
X158811785Y-112276190D01*
X158621309Y-112228571D01*
X158526071Y-112180952D01*
X158478452Y-112133333D01*
X158430833Y-112038095D01*
X158430833Y-111942857D01*
X158478452Y-111847619D01*
X158526071Y-111800000D01*
X158621309Y-111752380D01*
X158859404Y-111752380D01*
X159002261Y-111800000D01*
X159907023Y-112752380D02*
X159430833Y-112752380D01*
X159430833Y-111752380D01*
X146335595Y-114402380D02*
X146335595Y-113402380D01*
X146573690Y-113402380D01*
X146716547Y-113450000D01*
X146811785Y-113545238D01*
X146859404Y-113640476D01*
X146907023Y-113830952D01*
X146907023Y-113973809D01*
X146859404Y-114164285D01*
X146811785Y-114259523D01*
X146716547Y-114354761D01*
X146573690Y-114402380D01*
X146335595Y-114402380D01*
X147764166Y-113735714D02*
X147764166Y-114402380D01*
X147335595Y-113735714D02*
X147335595Y-114259523D01*
X147383214Y-114354761D01*
X147478452Y-114402380D01*
X147621309Y-114402380D01*
X147716547Y-114354761D01*
X147764166Y-114307142D01*
X148621309Y-114354761D02*
X148526071Y-114402380D01*
X148335595Y-114402380D01*
X148240357Y-114354761D01*
X148192738Y-114259523D01*
X148192738Y-113878571D01*
X148240357Y-113783333D01*
X148335595Y-113735714D01*
X148526071Y-113735714D01*
X148621309Y-113783333D01*
X148668928Y-113878571D01*
X148668928Y-113973809D01*
X148192738Y-114069047D01*
X149097500Y-113735714D02*
X149097500Y-114402380D01*
X149097500Y-113830952D02*
X149145119Y-113783333D01*
X149240357Y-113735714D01*
X149383214Y-113735714D01*
X149478452Y-113783333D01*
X149526071Y-113878571D01*
X149526071Y-114402380D01*
X149049880Y-113497619D02*
X149097500Y-113450000D01*
X149192738Y-113402380D01*
X149383214Y-113497619D01*
X149478452Y-113450000D01*
X149526071Y-113402380D01*
X150145119Y-114402380D02*
X150049880Y-114354761D01*
X150002261Y-114307142D01*
X149954642Y-114211904D01*
X149954642Y-113926190D01*
X150002261Y-113830952D01*
X150049880Y-113783333D01*
X150145119Y-113735714D01*
X150287976Y-113735714D01*
X150383214Y-113783333D01*
X150430833Y-113830952D01*
X150478452Y-113926190D01*
X150478452Y-114211904D01*
X150430833Y-114307142D01*
X150383214Y-114354761D01*
X150287976Y-114402380D01*
X150145119Y-114402380D01*
X150907023Y-114307142D02*
X150954642Y-114354761D01*
X150907023Y-114402380D01*
X150859404Y-114354761D01*
X150907023Y-114307142D01*
X150907023Y-114402380D01*
X150907023Y-113783333D02*
X150954642Y-113830952D01*
X150907023Y-113878571D01*
X150859404Y-113830952D01*
X150907023Y-113783333D01*
X150907023Y-113878571D01*
X152621309Y-114402380D02*
X152145119Y-114402380D01*
X152145119Y-113402380D01*
X153383214Y-114402380D02*
X153383214Y-113878571D01*
X153335595Y-113783333D01*
X153240357Y-113735714D01*
X153049880Y-113735714D01*
X152954642Y-113783333D01*
X153383214Y-114354761D02*
X153287976Y-114402380D01*
X153049880Y-114402380D01*
X152954642Y-114354761D01*
X152907023Y-114259523D01*
X152907023Y-114164285D01*
X152954642Y-114069047D01*
X153049880Y-114021428D01*
X153287976Y-114021428D01*
X153383214Y-113973809D01*
X154287976Y-114402380D02*
X154287976Y-113402380D01*
X154287976Y-114354761D02*
X154192738Y-114402380D01*
X154002261Y-114402380D01*
X153907023Y-114354761D01*
X153859404Y-114307142D01*
X153811785Y-114211904D01*
X153811785Y-113926190D01*
X153859404Y-113830952D01*
X153907023Y-113783333D01*
X154002261Y-113735714D01*
X154192738Y-113735714D01*
X154287976Y-113783333D01*
X154668928Y-113735714D02*
X154907023Y-114402380D01*
X155145119Y-113735714D02*
X154907023Y-114402380D01*
X154811785Y-114640476D01*
X154764166Y-114688095D01*
X154668928Y-114735714D01*
X156240357Y-114116666D02*
X156716547Y-114116666D01*
X156145119Y-114402380D02*
X156478452Y-113402380D01*
X156811785Y-114402380D01*
X157573690Y-114402380D02*
X157573690Y-113402380D01*
X157573690Y-114354761D02*
X157478452Y-114402380D01*
X157287976Y-114402380D01*
X157192738Y-114354761D01*
X157145119Y-114307142D01*
X157097500Y-114211904D01*
X157097500Y-113926190D01*
X157145119Y-113830952D01*
X157192738Y-113783333D01*
X157287976Y-113735714D01*
X157478452Y-113735714D01*
X157573690Y-113783333D01*
X158478452Y-114402380D02*
X158478452Y-113878571D01*
X158430833Y-113783333D01*
X158335595Y-113735714D01*
X158145119Y-113735714D01*
X158049880Y-113783333D01*
X158478452Y-114354761D02*
X158383214Y-114402380D01*
X158145119Y-114402380D01*
X158049880Y-114354761D01*
X158002261Y-114259523D01*
X158002261Y-114164285D01*
X158049880Y-114069047D01*
X158145119Y-114021428D01*
X158383214Y-114021428D01*
X158478452Y-113973809D01*
X142752380Y-98107142D02*
X142800000Y-98154761D01*
X142847619Y-98250000D01*
X142847619Y-98488095D01*
X142800000Y-98583333D01*
X142752380Y-98630952D01*
X142657142Y-98678571D01*
X142561904Y-98678571D01*
X142419047Y-98630952D01*
X141847619Y-98059523D01*
X141847619Y-98678571D01*
X142847619Y-99011904D02*
X142847619Y-99678571D01*
X141847619Y-99250000D01*
X141895238Y-100107142D02*
X141847619Y-100107142D01*
X141752380Y-100059523D01*
X141704761Y-100011904D01*
X142847619Y-100726190D02*
X142847619Y-100821428D01*
X142800000Y-100916666D01*
X142752380Y-100964285D01*
X142657142Y-101011904D01*
X142466666Y-101059523D01*
X142228571Y-101059523D01*
X142038095Y-101011904D01*
X141942857Y-100964285D01*
X141895238Y-100916666D01*
X141847619Y-100821428D01*
X141847619Y-100726190D01*
X141895238Y-100630952D01*
X141942857Y-100583333D01*
X142038095Y-100535714D01*
X142228571Y-100488095D01*
X142466666Y-100488095D01*
X142657142Y-100535714D01*
X142752380Y-100583333D01*
X142800000Y-100630952D01*
X142847619Y-100726190D01*
X142847619Y-101678571D02*
X142847619Y-101773809D01*
X142800000Y-101869047D01*
X142752380Y-101916666D01*
X142657142Y-101964285D01*
X142466666Y-102011904D01*
X142228571Y-102011904D01*
X142038095Y-101964285D01*
X141942857Y-101916666D01*
X141895238Y-101869047D01*
X141847619Y-101773809D01*
X141847619Y-101678571D01*
X141895238Y-101583333D01*
X141942857Y-101535714D01*
X142038095Y-101488095D01*
X142228571Y-101440476D01*
X142466666Y-101440476D01*
X142657142Y-101488095D01*
X142752380Y-101535714D01*
X142800000Y-101583333D01*
X142847619Y-101678571D01*
X142847619Y-102630952D02*
X142847619Y-102726190D01*
X142800000Y-102821428D01*
X142752380Y-102869047D01*
X142657142Y-102916666D01*
X142466666Y-102964285D01*
X142228571Y-102964285D01*
X142038095Y-102916666D01*
X141942857Y-102869047D01*
X141895238Y-102821428D01*
X141847619Y-102726190D01*
X141847619Y-102630952D01*
X141895238Y-102535714D01*
X141942857Y-102488095D01*
X142038095Y-102440476D01*
X142228571Y-102392857D01*
X142466666Y-102392857D01*
X142657142Y-102440476D01*
X142752380Y-102488095D01*
X142800000Y-102535714D01*
X142847619Y-102630952D01*
X141847619Y-104154761D02*
X142514285Y-104154761D01*
X142419047Y-104154761D02*
X142466666Y-104202380D01*
X142514285Y-104297619D01*
X142514285Y-104440476D01*
X142466666Y-104535714D01*
X142371428Y-104583333D01*
X141847619Y-104583333D01*
X142371428Y-104583333D02*
X142466666Y-104630952D01*
X142514285Y-104726190D01*
X142514285Y-104869047D01*
X142466666Y-104964285D01*
X142371428Y-105011904D01*
X141847619Y-105011904D01*
X141847619Y-105488095D02*
X142514285Y-105488095D01*
X142419047Y-105488095D02*
X142466666Y-105535714D01*
X142514285Y-105630952D01*
X142514285Y-105773809D01*
X142466666Y-105869047D01*
X142371428Y-105916666D01*
X141847619Y-105916666D01*
X142371428Y-105916666D02*
X142466666Y-105964285D01*
X142514285Y-106059523D01*
X142514285Y-106202380D01*
X142466666Y-106297619D01*
X142371428Y-106345238D01*
X141847619Y-106345238D01*
X141000000Y-88750000D02*
X141000000Y-115750000D01*
X136750000Y-88750000D02*
X141586421Y-88750000D01*
X136750000Y-115750000D02*
X141586421Y-115750000D01*
X141000000Y-115750000D02*
X140413579Y-114623496D01*
X141000000Y-115750000D02*
X141586421Y-114623496D01*
X141000000Y-88750000D02*
X140413579Y-89876504D01*
X141000000Y-88750000D02*
X141586421Y-89876504D01*
X139752380Y-98107142D02*
X139800000Y-98154761D01*
X139847619Y-98250000D01*
X139847619Y-98488095D01*
X139800000Y-98583333D01*
X139752380Y-98630952D01*
X139657142Y-98678571D01*
X139561904Y-98678571D01*
X139419047Y-98630952D01*
X138847619Y-98059523D01*
X138847619Y-98678571D01*
X139847619Y-99535714D02*
X139847619Y-99345238D01*
X139800000Y-99250000D01*
X139752380Y-99202380D01*
X139609523Y-99107142D01*
X139419047Y-99059523D01*
X139038095Y-99059523D01*
X138942857Y-99107142D01*
X138895238Y-99154761D01*
X138847619Y-99250000D01*
X138847619Y-99440476D01*
X138895238Y-99535714D01*
X138942857Y-99583333D01*
X139038095Y-99630952D01*
X139276190Y-99630952D01*
X139371428Y-99583333D01*
X139419047Y-99535714D01*
X139466666Y-99440476D01*
X139466666Y-99250000D01*
X139419047Y-99154761D01*
X139371428Y-99107142D01*
X139276190Y-99059523D01*
X138895238Y-100107142D02*
X138847619Y-100107142D01*
X138752380Y-100059523D01*
X138704761Y-100011904D01*
X139847619Y-100726190D02*
X139847619Y-100821428D01*
X139800000Y-100916666D01*
X139752380Y-100964285D01*
X139657142Y-101011904D01*
X139466666Y-101059523D01*
X139228571Y-101059523D01*
X139038095Y-101011904D01*
X138942857Y-100964285D01*
X138895238Y-100916666D01*
X138847619Y-100821428D01*
X138847619Y-100726190D01*
X138895238Y-100630952D01*
X138942857Y-100583333D01*
X139038095Y-100535714D01*
X139228571Y-100488095D01*
X139466666Y-100488095D01*
X139657142Y-100535714D01*
X139752380Y-100583333D01*
X139800000Y-100630952D01*
X139847619Y-100726190D01*
X139847619Y-101678571D02*
X139847619Y-101773809D01*
X139800000Y-101869047D01*
X139752380Y-101916666D01*
X139657142Y-101964285D01*
X139466666Y-102011904D01*
X139228571Y-102011904D01*
X139038095Y-101964285D01*
X138942857Y-101916666D01*
X138895238Y-101869047D01*
X138847619Y-101773809D01*
X138847619Y-101678571D01*
X138895238Y-101583333D01*
X138942857Y-101535714D01*
X139038095Y-101488095D01*
X139228571Y-101440476D01*
X139466666Y-101440476D01*
X139657142Y-101488095D01*
X139752380Y-101535714D01*
X139800000Y-101583333D01*
X139847619Y-101678571D01*
X139847619Y-102630952D02*
X139847619Y-102726190D01*
X139800000Y-102821428D01*
X139752380Y-102869047D01*
X139657142Y-102916666D01*
X139466666Y-102964285D01*
X139228571Y-102964285D01*
X139038095Y-102916666D01*
X138942857Y-102869047D01*
X138895238Y-102821428D01*
X138847619Y-102726190D01*
X138847619Y-102630952D01*
X138895238Y-102535714D01*
X138942857Y-102488095D01*
X139038095Y-102440476D01*
X139228571Y-102392857D01*
X139466666Y-102392857D01*
X139657142Y-102440476D01*
X139752380Y-102488095D01*
X139800000Y-102535714D01*
X139847619Y-102630952D01*
X138847619Y-104154761D02*
X139514285Y-104154761D01*
X139419047Y-104154761D02*
X139466666Y-104202380D01*
X139514285Y-104297619D01*
X139514285Y-104440476D01*
X139466666Y-104535714D01*
X139371428Y-104583333D01*
X138847619Y-104583333D01*
X139371428Y-104583333D02*
X139466666Y-104630952D01*
X139514285Y-104726190D01*
X139514285Y-104869047D01*
X139466666Y-104964285D01*
X139371428Y-105011904D01*
X138847619Y-105011904D01*
X138847619Y-105488095D02*
X139514285Y-105488095D01*
X139419047Y-105488095D02*
X139466666Y-105535714D01*
X139514285Y-105630952D01*
X139514285Y-105773809D01*
X139466666Y-105869047D01*
X139371428Y-105916666D01*
X138847619Y-105916666D01*
X139371428Y-105916666D02*
X139466666Y-105964285D01*
X139514285Y-106059523D01*
X139514285Y-106202380D01*
X139466666Y-106297619D01*
X139371428Y-106345238D01*
X138847619Y-106345238D01*
X138000000Y-89250000D02*
X138000000Y-115250000D01*
X136250000Y-89250000D02*
X138586421Y-89250000D01*
X136250000Y-115250000D02*
X138586421Y-115250000D01*
X138000000Y-115250000D02*
X137413579Y-114123496D01*
X138000000Y-115250000D02*
X138586421Y-114123496D01*
X138000000Y-89250000D02*
X137413579Y-90376504D01*
X138000000Y-89250000D02*
X138586421Y-90376504D01*
X118107142Y-85247619D02*
X118154761Y-85200000D01*
X118250000Y-85152380D01*
X118488095Y-85152380D01*
X118583333Y-85200000D01*
X118630952Y-85247619D01*
X118678571Y-85342857D01*
X118678571Y-85438095D01*
X118630952Y-85580952D01*
X118059523Y-86152380D01*
X118678571Y-86152380D01*
X119250000Y-85580952D02*
X119154761Y-85533333D01*
X119107142Y-85485714D01*
X119059523Y-85390476D01*
X119059523Y-85342857D01*
X119107142Y-85247619D01*
X119154761Y-85200000D01*
X119250000Y-85152380D01*
X119440476Y-85152380D01*
X119535714Y-85200000D01*
X119583333Y-85247619D01*
X119630952Y-85342857D01*
X119630952Y-85390476D01*
X119583333Y-85485714D01*
X119535714Y-85533333D01*
X119440476Y-85580952D01*
X119250000Y-85580952D01*
X119154761Y-85628571D01*
X119107142Y-85676190D01*
X119059523Y-85771428D01*
X119059523Y-85961904D01*
X119107142Y-86057142D01*
X119154761Y-86104761D01*
X119250000Y-86152380D01*
X119440476Y-86152380D01*
X119535714Y-86104761D01*
X119583333Y-86057142D01*
X119630952Y-85961904D01*
X119630952Y-85771428D01*
X119583333Y-85676190D01*
X119535714Y-85628571D01*
X119440476Y-85580952D01*
X120107142Y-86104761D02*
X120107142Y-86152380D01*
X120059523Y-86247619D01*
X120011904Y-86295238D01*
X120726190Y-85152380D02*
X120821428Y-85152380D01*
X120916666Y-85200000D01*
X120964285Y-85247619D01*
X121011904Y-85342857D01*
X121059523Y-85533333D01*
X121059523Y-85771428D01*
X121011904Y-85961904D01*
X120964285Y-86057142D01*
X120916666Y-86104761D01*
X120821428Y-86152380D01*
X120726190Y-86152380D01*
X120630952Y-86104761D01*
X120583333Y-86057142D01*
X120535714Y-85961904D01*
X120488095Y-85771428D01*
X120488095Y-85533333D01*
X120535714Y-85342857D01*
X120583333Y-85247619D01*
X120630952Y-85200000D01*
X120726190Y-85152380D01*
X121678571Y-85152380D02*
X121773809Y-85152380D01*
X121869047Y-85200000D01*
X121916666Y-85247619D01*
X121964285Y-85342857D01*
X122011904Y-85533333D01*
X122011904Y-85771428D01*
X121964285Y-85961904D01*
X121916666Y-86057142D01*
X121869047Y-86104761D01*
X121773809Y-86152380D01*
X121678571Y-86152380D01*
X121583333Y-86104761D01*
X121535714Y-86057142D01*
X121488095Y-85961904D01*
X121440476Y-85771428D01*
X121440476Y-85533333D01*
X121488095Y-85342857D01*
X121535714Y-85247619D01*
X121583333Y-85200000D01*
X121678571Y-85152380D01*
X122630952Y-85152380D02*
X122726190Y-85152380D01*
X122821428Y-85200000D01*
X122869047Y-85247619D01*
X122916666Y-85342857D01*
X122964285Y-85533333D01*
X122964285Y-85771428D01*
X122916666Y-85961904D01*
X122869047Y-86057142D01*
X122821428Y-86104761D01*
X122726190Y-86152380D01*
X122630952Y-86152380D01*
X122535714Y-86104761D01*
X122488095Y-86057142D01*
X122440476Y-85961904D01*
X122392857Y-85771428D01*
X122392857Y-85533333D01*
X122440476Y-85342857D01*
X122488095Y-85247619D01*
X122535714Y-85200000D01*
X122630952Y-85152380D01*
X124154761Y-86152380D02*
X124154761Y-85485714D01*
X124154761Y-85580952D02*
X124202380Y-85533333D01*
X124297619Y-85485714D01*
X124440476Y-85485714D01*
X124535714Y-85533333D01*
X124583333Y-85628571D01*
X124583333Y-86152380D01*
X124583333Y-85628571D02*
X124630952Y-85533333D01*
X124726190Y-85485714D01*
X124869047Y-85485714D01*
X124964285Y-85533333D01*
X125011904Y-85628571D01*
X125011904Y-86152380D01*
X125488095Y-86152380D02*
X125488095Y-85485714D01*
X125488095Y-85580952D02*
X125535714Y-85533333D01*
X125630952Y-85485714D01*
X125773809Y-85485714D01*
X125869047Y-85533333D01*
X125916666Y-85628571D01*
X125916666Y-86152380D01*
X125916666Y-85628571D02*
X125964285Y-85533333D01*
X126059523Y-85485714D01*
X126202380Y-85485714D01*
X126297619Y-85533333D01*
X126345238Y-85628571D01*
X126345238Y-86152380D01*
X108250000Y-87000000D02*
X136250000Y-87000000D01*
X108250000Y-89250000D02*
X108250000Y-86413579D01*
X136250000Y-89250000D02*
X136250000Y-86413579D01*
X136250000Y-87000000D02*
X135123496Y-87586421D01*
X136250000Y-87000000D02*
X135123496Y-86413579D01*
X108250000Y-87000000D02*
X109376504Y-87586421D01*
X108250000Y-87000000D02*
X109376504Y-86413579D01*
X118107142Y-82247619D02*
X118154761Y-82200000D01*
X118250000Y-82152380D01*
X118488095Y-82152380D01*
X118583333Y-82200000D01*
X118630952Y-82247619D01*
X118678571Y-82342857D01*
X118678571Y-82438095D01*
X118630952Y-82580952D01*
X118059523Y-83152380D01*
X118678571Y-83152380D01*
X119154761Y-83152380D02*
X119345238Y-83152380D01*
X119440476Y-83104761D01*
X119488095Y-83057142D01*
X119583333Y-82914285D01*
X119630952Y-82723809D01*
X119630952Y-82342857D01*
X119583333Y-82247619D01*
X119535714Y-82200000D01*
X119440476Y-82152380D01*
X119250000Y-82152380D01*
X119154761Y-82200000D01*
X119107142Y-82247619D01*
X119059523Y-82342857D01*
X119059523Y-82580952D01*
X119107142Y-82676190D01*
X119154761Y-82723809D01*
X119250000Y-82771428D01*
X119440476Y-82771428D01*
X119535714Y-82723809D01*
X119583333Y-82676190D01*
X119630952Y-82580952D01*
X120107142Y-83104761D02*
X120107142Y-83152380D01*
X120059523Y-83247619D01*
X120011904Y-83295238D01*
X120726190Y-82152380D02*
X120821428Y-82152380D01*
X120916666Y-82200000D01*
X120964285Y-82247619D01*
X121011904Y-82342857D01*
X121059523Y-82533333D01*
X121059523Y-82771428D01*
X121011904Y-82961904D01*
X120964285Y-83057142D01*
X120916666Y-83104761D01*
X120821428Y-83152380D01*
X120726190Y-83152380D01*
X120630952Y-83104761D01*
X120583333Y-83057142D01*
X120535714Y-82961904D01*
X120488095Y-82771428D01*
X120488095Y-82533333D01*
X120535714Y-82342857D01*
X120583333Y-82247619D01*
X120630952Y-82200000D01*
X120726190Y-82152380D01*
X121678571Y-82152380D02*
X121773809Y-82152380D01*
X121869047Y-82200000D01*
X121916666Y-82247619D01*
X121964285Y-82342857D01*
X122011904Y-82533333D01*
X122011904Y-82771428D01*
X121964285Y-82961904D01*
X121916666Y-83057142D01*
X121869047Y-83104761D01*
X121773809Y-83152380D01*
X121678571Y-83152380D01*
X121583333Y-83104761D01*
X121535714Y-83057142D01*
X121488095Y-82961904D01*
X121440476Y-82771428D01*
X121440476Y-82533333D01*
X121488095Y-82342857D01*
X121535714Y-82247619D01*
X121583333Y-82200000D01*
X121678571Y-82152380D01*
X122630952Y-82152380D02*
X122726190Y-82152380D01*
X122821428Y-82200000D01*
X122869047Y-82247619D01*
X122916666Y-82342857D01*
X122964285Y-82533333D01*
X122964285Y-82771428D01*
X122916666Y-82961904D01*
X122869047Y-83057142D01*
X122821428Y-83104761D01*
X122726190Y-83152380D01*
X122630952Y-83152380D01*
X122535714Y-83104761D01*
X122488095Y-83057142D01*
X122440476Y-82961904D01*
X122392857Y-82771428D01*
X122392857Y-82533333D01*
X122440476Y-82342857D01*
X122488095Y-82247619D01*
X122535714Y-82200000D01*
X122630952Y-82152380D01*
X124154761Y-83152380D02*
X124154761Y-82485714D01*
X124154761Y-82580952D02*
X124202380Y-82533333D01*
X124297619Y-82485714D01*
X124440476Y-82485714D01*
X124535714Y-82533333D01*
X124583333Y-82628571D01*
X124583333Y-83152380D01*
X124583333Y-82628571D02*
X124630952Y-82533333D01*
X124726190Y-82485714D01*
X124869047Y-82485714D01*
X124964285Y-82533333D01*
X125011904Y-82628571D01*
X125011904Y-83152380D01*
X125488095Y-83152380D02*
X125488095Y-82485714D01*
X125488095Y-82580952D02*
X125535714Y-82533333D01*
X125630952Y-82485714D01*
X125773809Y-82485714D01*
X125869047Y-82533333D01*
X125916666Y-82628571D01*
X125916666Y-83152380D01*
X125916666Y-82628571D02*
X125964285Y-82533333D01*
X126059523Y-82485714D01*
X126202380Y-82485714D01*
X126297619Y-82533333D01*
X126345238Y-82628571D01*
X126345238Y-83152380D01*
X107750000Y-84000000D02*
X136750000Y-84000000D01*
X107750000Y-88750000D02*
X107750000Y-83413579D01*
X136750000Y-88750000D02*
X136750000Y-83413579D01*
X136750000Y-84000000D02*
X135623496Y-84586421D01*
X136750000Y-84000000D02*
X135623496Y-83413579D01*
X107750000Y-84000000D02*
X108876504Y-84586421D01*
X107750000Y-84000000D02*
X108876504Y-83413579D01*
M02*
