%TF.GenerationSoftware,KiCad,Pcbnew,(5.1.10)-1*%
%TF.CreationDate,2021-10-14T08:55:52-04:00*%
%TF.ProjectId,TP_Final,54505f46-696e-4616-9c2e-6b696361645f,rev?*%
%TF.SameCoordinates,Original*%
%TF.FileFunction,Other,User*%
%FSLAX46Y46*%
G04 Gerber Fmt 4.6, Leading zero omitted, Abs format (unit mm)*
G04 Created by KiCad (PCBNEW (5.1.10)-1) date 2021-10-14 08:55:52*
%MOMM*%
%LPD*%
G01*
G04 APERTURE LIST*
%ADD10C,0.050000*%
%ADD11C,0.150000*%
G04 APERTURE END LIST*
D10*
%TO.C,FID2*%
X120250000Y-101750000D02*
G75*
G03*
X120250000Y-101750000I-750000J0D01*
G01*
%TO.C,FID3*%
X120250000Y-108750000D02*
G75*
G03*
X120250000Y-108750000I-750000J0D01*
G01*
%TO.C,FID4*%
X135250000Y-102250000D02*
G75*
G03*
X135250000Y-102250000I-750000J0D01*
G01*
%TO.C,H1*%
X134750000Y-92250000D02*
G75*
G03*
X134750000Y-92250000I-2250000J0D01*
G01*
%TO.C,H2*%
X134750000Y-112250000D02*
G75*
G03*
X134750000Y-112250000I-2250000J0D01*
G01*
%TO.C,J2*%
X128900000Y-101250000D02*
X136100000Y-101250000D01*
X136100000Y-101250000D02*
X136100000Y-94710000D01*
X136100000Y-94710000D02*
X128900000Y-94710000D01*
X128900000Y-94710000D02*
X128900000Y-101250000D01*
%TO.C,J3*%
X128900000Y-103250000D02*
X128900000Y-109790000D01*
X136100000Y-103250000D02*
X128900000Y-103250000D01*
X136100000Y-109790000D02*
X136100000Y-103250000D01*
X128900000Y-109790000D02*
X136100000Y-109790000D01*
D11*
%TO.C,U1*%
X119850000Y-100600000D02*
X119850000Y-96900000D01*
X116150000Y-100600000D02*
X119850000Y-100600000D01*
X116150000Y-96900000D02*
X116150000Y-100600000D01*
X119850000Y-96900000D02*
X116150000Y-96900000D01*
X119850000Y-96900000D02*
X119850000Y-96900000D01*
%TO.C,U2*%
X119850000Y-103900000D02*
X119850000Y-103900000D01*
X119850000Y-103900000D02*
X116150000Y-103900000D01*
X116150000Y-103900000D02*
X116150000Y-107600000D01*
X116150000Y-107600000D02*
X119850000Y-107600000D01*
X119850000Y-107600000D02*
X119850000Y-103900000D01*
D10*
%TO.C,C1*%
X116950000Y-94730000D02*
X113550000Y-94730000D01*
X116950000Y-92770000D02*
X116950000Y-94730000D01*
X113550000Y-92770000D02*
X116950000Y-92770000D01*
X113550000Y-94730000D02*
X113550000Y-92770000D01*
%TO.C,C2*%
X118100000Y-94730000D02*
X118100000Y-92770000D01*
X118100000Y-92770000D02*
X121500000Y-92770000D01*
X121500000Y-92770000D02*
X121500000Y-94730000D01*
X121500000Y-94730000D02*
X118100000Y-94730000D01*
%TO.C,C3*%
X113300000Y-111730000D02*
X113300000Y-109770000D01*
X113300000Y-109770000D02*
X116700000Y-109770000D01*
X116700000Y-109770000D02*
X116700000Y-111730000D01*
X116700000Y-111730000D02*
X113300000Y-111730000D01*
%TO.C,C4*%
X117800000Y-111730000D02*
X117800000Y-109770000D01*
X117800000Y-109770000D02*
X121200000Y-109770000D01*
X121200000Y-109770000D02*
X121200000Y-111730000D01*
X121200000Y-111730000D02*
X117800000Y-111730000D01*
%TO.C,C5*%
X125520000Y-96450000D02*
X125520000Y-93050000D01*
X127480000Y-96450000D02*
X125520000Y-96450000D01*
X127480000Y-93050000D02*
X127480000Y-96450000D01*
X125520000Y-93050000D02*
X127480000Y-93050000D01*
%TO.C,C6*%
X125520000Y-101000000D02*
X125520000Y-97600000D01*
X127480000Y-101000000D02*
X125520000Y-101000000D01*
X127480000Y-97600000D02*
X127480000Y-101000000D01*
X125520000Y-97600000D02*
X127480000Y-97600000D01*
%TO.C,C7*%
X125520000Y-103500000D02*
X127480000Y-103500000D01*
X127480000Y-103500000D02*
X127480000Y-106900000D01*
X127480000Y-106900000D02*
X125520000Y-106900000D01*
X125520000Y-106900000D02*
X125520000Y-103500000D01*
%TO.C,C8*%
X125520000Y-111450000D02*
X125520000Y-108050000D01*
X127480000Y-111450000D02*
X125520000Y-111450000D01*
X127480000Y-108050000D02*
X127480000Y-111450000D01*
X125520000Y-108050000D02*
X127480000Y-108050000D01*
%TO.C,FB1*%
X122050000Y-96430000D02*
X122050000Y-93070000D01*
X123950000Y-96430000D02*
X122050000Y-96430000D01*
X123950000Y-93070000D02*
X123950000Y-96430000D01*
X122050000Y-93070000D02*
X123950000Y-93070000D01*
%TO.C,FB2*%
X122050000Y-100992500D02*
X122050000Y-97632500D01*
X123950000Y-100992500D02*
X122050000Y-100992500D01*
X123950000Y-97632500D02*
X123950000Y-100992500D01*
X122050000Y-97632500D02*
X123950000Y-97632500D01*
%TO.C,FB3*%
X122050000Y-103507500D02*
X123950000Y-103507500D01*
X123950000Y-103507500D02*
X123950000Y-106867500D01*
X123950000Y-106867500D02*
X122050000Y-106867500D01*
X122050000Y-106867500D02*
X122050000Y-103507500D01*
%TO.C,FB4*%
X122050000Y-108070000D02*
X123950000Y-108070000D01*
X123950000Y-108070000D02*
X123950000Y-111430000D01*
X123950000Y-111430000D02*
X122050000Y-111430000D01*
X122050000Y-111430000D02*
X122050000Y-108070000D01*
%TO.C,R1*%
X115450000Y-103930000D02*
X113550000Y-103930000D01*
X113550000Y-103930000D02*
X113550000Y-100570000D01*
X113550000Y-100570000D02*
X115450000Y-100570000D01*
X115450000Y-100570000D02*
X115450000Y-103930000D01*
%TD*%
M02*
