M48
; DRILL file {KiCad (5.1.10)-1} date 10/14/21 08:57:05
; FORMAT={-:-/ absolute / inch / decimal}
; #@! TF.CreationDate,2021-10-14T08:57:05-04:00
; #@! TF.GenerationSoftware,Kicad,Pcbnew,(5.1.10)-1
; #@! TF.FileFunction,Plated,1,2,PTH
FMAT,2
INCH
T1C0.0157
T2C0.0394
T3C0.0433
%
G90
G05
T1
X4.5472Y-4.124
X4.5896Y-4.0556
X4.6161Y-4.3602
X4.626Y-3.6909
X4.6289Y-4.0551
X4.6683Y-4.0551
X4.7539Y-3.7598
X4.7539Y-3.8583
X4.7539Y-4.1339
X4.7539Y-4.2815
X4.9803Y-3.8189
X4.9803Y-4.0059
X4.9803Y-4.2323
X4.9803Y-4.4094
T2
X4.3406Y-3.7224
X4.3406Y-3.8224
X4.3406Y-3.9224
X4.3406Y-4.0224
X4.3406Y-4.1224
X4.3406Y-4.2224
X4.3406Y-4.3224
T3
X5.2165Y-3.8075
X5.2165Y-3.9075
X5.2165Y-4.1437
X5.2165Y-4.2437
T0
M30
