%TF.GenerationSoftware,KiCad,Pcbnew,(5.1.10)-1*%
%TF.CreationDate,2021-10-14T08:55:52-04:00*%
%TF.ProjectId,TP_Final,54505f46-696e-4616-9c2e-6b696361645f,rev?*%
%TF.SameCoordinates,Original*%
%TF.FileFunction,Other,Fab,Top*%
%FSLAX46Y46*%
G04 Gerber Fmt 4.6, Leading zero omitted, Abs format (unit mm)*
G04 Created by KiCad (PCBNEW (5.1.10)-1) date 2021-10-14 08:55:52*
%MOMM*%
%LPD*%
G01*
G04 APERTURE LIST*
%ADD10C,0.100000*%
%ADD11C,0.150000*%
%ADD12C,0.040000*%
%ADD13C,0.080000*%
G04 APERTURE END LIST*
D10*
%TO.C,FID2*%
X120000000Y-101750000D02*
G75*
G03*
X120000000Y-101750000I-500000J0D01*
G01*
%TO.C,FID3*%
X120000000Y-108750000D02*
G75*
G03*
X120000000Y-108750000I-500000J0D01*
G01*
%TO.C,FID4*%
X135000000Y-102250000D02*
G75*
G03*
X135000000Y-102250000I-500000J0D01*
G01*
%TO.C,J2*%
X133600000Y-99250000D02*
G75*
G03*
X133600000Y-99250000I-1100000J0D01*
G01*
X133600000Y-96710000D02*
G75*
G03*
X133600000Y-96710000I-1100000J0D01*
G01*
X129400000Y-100750000D02*
X129400000Y-95210000D01*
X129400000Y-95210000D02*
X135600000Y-95210000D01*
X135600000Y-95210000D02*
X135600000Y-100250000D01*
X135600000Y-100250000D02*
X135100000Y-100750000D01*
X135100000Y-100750000D02*
X129400000Y-100750000D01*
X135100000Y-100750000D02*
X135100000Y-95210000D01*
X129800000Y-100750000D02*
X129800000Y-95210000D01*
X131800000Y-98415000D02*
X133335000Y-99951000D01*
X131665000Y-98549000D02*
X133200000Y-100085000D01*
X131800000Y-95875000D02*
X133335000Y-97410000D01*
X131665000Y-96009000D02*
X133200000Y-97544000D01*
%TO.C,J3*%
X131665000Y-104549000D02*
X133200000Y-106084000D01*
X131800000Y-104415000D02*
X133335000Y-105950000D01*
X131665000Y-107089000D02*
X133200000Y-108625000D01*
X131800000Y-106955000D02*
X133335000Y-108491000D01*
X129800000Y-109290000D02*
X129800000Y-103750000D01*
X135100000Y-109290000D02*
X135100000Y-103750000D01*
X135100000Y-109290000D02*
X129400000Y-109290000D01*
X135600000Y-108790000D02*
X135100000Y-109290000D01*
X135600000Y-103750000D02*
X135600000Y-108790000D01*
X129400000Y-103750000D02*
X135600000Y-103750000D01*
X129400000Y-109290000D02*
X129400000Y-103750000D01*
X133600000Y-105250000D02*
G75*
G03*
X133600000Y-105250000I-1100000J0D01*
G01*
X133600000Y-107790000D02*
G75*
G03*
X133600000Y-107790000I-1100000J0D01*
G01*
D11*
%TO.C,U1*%
X119500000Y-100250000D02*
X116500000Y-100250000D01*
X119500000Y-97250000D02*
X119500000Y-100250000D01*
X116500000Y-97250000D02*
X119500000Y-97250000D01*
X116500000Y-100250000D02*
X116500000Y-97250000D01*
%TO.C,U2*%
X116500000Y-107250000D02*
X116500000Y-104250000D01*
X116500000Y-104250000D02*
X119500000Y-104250000D01*
X119500000Y-104250000D02*
X119500000Y-107250000D01*
X119500000Y-107250000D02*
X116500000Y-107250000D01*
D10*
%TO.C,C1*%
X116250000Y-94375000D02*
X114250000Y-94375000D01*
X116250000Y-93125000D02*
X116250000Y-94375000D01*
X114250000Y-93125000D02*
X116250000Y-93125000D01*
X114250000Y-94375000D02*
X114250000Y-93125000D01*
%TO.C,C2*%
X118800000Y-94375000D02*
X118800000Y-93125000D01*
X118800000Y-93125000D02*
X120800000Y-93125000D01*
X120800000Y-93125000D02*
X120800000Y-94375000D01*
X120800000Y-94375000D02*
X118800000Y-94375000D01*
%TO.C,C3*%
X114000000Y-111375000D02*
X114000000Y-110125000D01*
X114000000Y-110125000D02*
X116000000Y-110125000D01*
X116000000Y-110125000D02*
X116000000Y-111375000D01*
X116000000Y-111375000D02*
X114000000Y-111375000D01*
%TO.C,C4*%
X118500000Y-111375000D02*
X118500000Y-110125000D01*
X118500000Y-110125000D02*
X120500000Y-110125000D01*
X120500000Y-110125000D02*
X120500000Y-111375000D01*
X120500000Y-111375000D02*
X118500000Y-111375000D01*
%TO.C,C5*%
X125875000Y-95750000D02*
X125875000Y-93750000D01*
X127125000Y-95750000D02*
X125875000Y-95750000D01*
X127125000Y-93750000D02*
X127125000Y-95750000D01*
X125875000Y-93750000D02*
X127125000Y-93750000D01*
%TO.C,C6*%
X125875000Y-100300000D02*
X125875000Y-98300000D01*
X127125000Y-100300000D02*
X125875000Y-100300000D01*
X127125000Y-98300000D02*
X127125000Y-100300000D01*
X125875000Y-98300000D02*
X127125000Y-98300000D01*
%TO.C,C7*%
X125875000Y-104200000D02*
X127125000Y-104200000D01*
X127125000Y-104200000D02*
X127125000Y-106200000D01*
X127125000Y-106200000D02*
X125875000Y-106200000D01*
X125875000Y-106200000D02*
X125875000Y-104200000D01*
%TO.C,C8*%
X125875000Y-110750000D02*
X125875000Y-108750000D01*
X127125000Y-110750000D02*
X125875000Y-110750000D01*
X127125000Y-108750000D02*
X127125000Y-110750000D01*
X125875000Y-108750000D02*
X127125000Y-108750000D01*
%TO.C,FB1*%
X122400000Y-95750000D02*
X122400000Y-93750000D01*
X123600000Y-95750000D02*
X122400000Y-95750000D01*
X123600000Y-93750000D02*
X123600000Y-95750000D01*
X122400000Y-93750000D02*
X123600000Y-93750000D01*
%TO.C,FB2*%
X122400000Y-100312500D02*
X122400000Y-98312500D01*
X123600000Y-100312500D02*
X122400000Y-100312500D01*
X123600000Y-98312500D02*
X123600000Y-100312500D01*
X122400000Y-98312500D02*
X123600000Y-98312500D01*
%TO.C,FB3*%
X122400000Y-104187500D02*
X123600000Y-104187500D01*
X123600000Y-104187500D02*
X123600000Y-106187500D01*
X123600000Y-106187500D02*
X122400000Y-106187500D01*
X122400000Y-106187500D02*
X122400000Y-104187500D01*
%TO.C,FB4*%
X122400000Y-108750000D02*
X123600000Y-108750000D01*
X123600000Y-108750000D02*
X123600000Y-110750000D01*
X123600000Y-110750000D02*
X122400000Y-110750000D01*
X122400000Y-110750000D02*
X122400000Y-108750000D01*
%TO.C,R1*%
X115125000Y-103250000D02*
X113875000Y-103250000D01*
X113875000Y-103250000D02*
X113875000Y-101250000D01*
X113875000Y-101250000D02*
X115125000Y-101250000D01*
X115125000Y-101250000D02*
X115125000Y-103250000D01*
%TD*%
%TO.C,FID2*%
D11*
X117119047Y-103178571D02*
X116785714Y-103178571D01*
X116785714Y-103702380D02*
X116785714Y-102702380D01*
X117261904Y-102702380D01*
X117642857Y-103702380D02*
X117642857Y-103035714D01*
X117642857Y-102702380D02*
X117595238Y-102750000D01*
X117642857Y-102797619D01*
X117690476Y-102750000D01*
X117642857Y-102702380D01*
X117642857Y-102797619D01*
X118547619Y-103702380D02*
X118547619Y-102702380D01*
X118547619Y-103654761D02*
X118452380Y-103702380D01*
X118261904Y-103702380D01*
X118166666Y-103654761D01*
X118119047Y-103607142D01*
X118071428Y-103511904D01*
X118071428Y-103226190D01*
X118119047Y-103130952D01*
X118166666Y-103083333D01*
X118261904Y-103035714D01*
X118452380Y-103035714D01*
X118547619Y-103083333D01*
X119452380Y-103035714D02*
X119452380Y-103702380D01*
X119023809Y-103035714D02*
X119023809Y-103559523D01*
X119071428Y-103654761D01*
X119166666Y-103702380D01*
X119309523Y-103702380D01*
X119404761Y-103654761D01*
X119452380Y-103607142D01*
X120357142Y-103654761D02*
X120261904Y-103702380D01*
X120071428Y-103702380D01*
X119976190Y-103654761D01*
X119928571Y-103607142D01*
X119880952Y-103511904D01*
X119880952Y-103226190D01*
X119928571Y-103130952D01*
X119976190Y-103083333D01*
X120071428Y-103035714D01*
X120261904Y-103035714D01*
X120357142Y-103083333D01*
X120785714Y-103702380D02*
X120785714Y-103035714D01*
X120785714Y-102702380D02*
X120738095Y-102750000D01*
X120785714Y-102797619D01*
X120833333Y-102750000D01*
X120785714Y-102702380D01*
X120785714Y-102797619D01*
X121690476Y-103702380D02*
X121690476Y-103178571D01*
X121642857Y-103083333D01*
X121547619Y-103035714D01*
X121357142Y-103035714D01*
X121261904Y-103083333D01*
X121690476Y-103654761D02*
X121595238Y-103702380D01*
X121357142Y-103702380D01*
X121261904Y-103654761D01*
X121214285Y-103559523D01*
X121214285Y-103464285D01*
X121261904Y-103369047D01*
X121357142Y-103321428D01*
X121595238Y-103321428D01*
X121690476Y-103273809D01*
X122309523Y-103702380D02*
X122214285Y-103654761D01*
X122166666Y-103559523D01*
X122166666Y-102702380D01*
D12*
X119285714Y-101735714D02*
X119219047Y-101735714D01*
X119219047Y-101840476D02*
X119219047Y-101640476D01*
X119314285Y-101640476D01*
X119390476Y-101840476D02*
X119390476Y-101640476D01*
X119485714Y-101840476D02*
X119485714Y-101640476D01*
X119533333Y-101640476D01*
X119561904Y-101650000D01*
X119580952Y-101669047D01*
X119590476Y-101688095D01*
X119600000Y-101726190D01*
X119600000Y-101754761D01*
X119590476Y-101792857D01*
X119580952Y-101811904D01*
X119561904Y-101830952D01*
X119533333Y-101840476D01*
X119485714Y-101840476D01*
X119676190Y-101659523D02*
X119685714Y-101650000D01*
X119704761Y-101640476D01*
X119752380Y-101640476D01*
X119771428Y-101650000D01*
X119780952Y-101659523D01*
X119790476Y-101678571D01*
X119790476Y-101697619D01*
X119780952Y-101726190D01*
X119666666Y-101840476D01*
X119790476Y-101840476D01*
%TO.C,FID3*%
D11*
X117119047Y-110178571D02*
X116785714Y-110178571D01*
X116785714Y-110702380D02*
X116785714Y-109702380D01*
X117261904Y-109702380D01*
X117642857Y-110702380D02*
X117642857Y-110035714D01*
X117642857Y-109702380D02*
X117595238Y-109750000D01*
X117642857Y-109797619D01*
X117690476Y-109750000D01*
X117642857Y-109702380D01*
X117642857Y-109797619D01*
X118547619Y-110702380D02*
X118547619Y-109702380D01*
X118547619Y-110654761D02*
X118452380Y-110702380D01*
X118261904Y-110702380D01*
X118166666Y-110654761D01*
X118119047Y-110607142D01*
X118071428Y-110511904D01*
X118071428Y-110226190D01*
X118119047Y-110130952D01*
X118166666Y-110083333D01*
X118261904Y-110035714D01*
X118452380Y-110035714D01*
X118547619Y-110083333D01*
X119452380Y-110035714D02*
X119452380Y-110702380D01*
X119023809Y-110035714D02*
X119023809Y-110559523D01*
X119071428Y-110654761D01*
X119166666Y-110702380D01*
X119309523Y-110702380D01*
X119404761Y-110654761D01*
X119452380Y-110607142D01*
X120357142Y-110654761D02*
X120261904Y-110702380D01*
X120071428Y-110702380D01*
X119976190Y-110654761D01*
X119928571Y-110607142D01*
X119880952Y-110511904D01*
X119880952Y-110226190D01*
X119928571Y-110130952D01*
X119976190Y-110083333D01*
X120071428Y-110035714D01*
X120261904Y-110035714D01*
X120357142Y-110083333D01*
X120785714Y-110702380D02*
X120785714Y-110035714D01*
X120785714Y-109702380D02*
X120738095Y-109750000D01*
X120785714Y-109797619D01*
X120833333Y-109750000D01*
X120785714Y-109702380D01*
X120785714Y-109797619D01*
X121690476Y-110702380D02*
X121690476Y-110178571D01*
X121642857Y-110083333D01*
X121547619Y-110035714D01*
X121357142Y-110035714D01*
X121261904Y-110083333D01*
X121690476Y-110654761D02*
X121595238Y-110702380D01*
X121357142Y-110702380D01*
X121261904Y-110654761D01*
X121214285Y-110559523D01*
X121214285Y-110464285D01*
X121261904Y-110369047D01*
X121357142Y-110321428D01*
X121595238Y-110321428D01*
X121690476Y-110273809D01*
X122309523Y-110702380D02*
X122214285Y-110654761D01*
X122166666Y-110559523D01*
X122166666Y-109702380D01*
D12*
X119285714Y-108735714D02*
X119219047Y-108735714D01*
X119219047Y-108840476D02*
X119219047Y-108640476D01*
X119314285Y-108640476D01*
X119390476Y-108840476D02*
X119390476Y-108640476D01*
X119485714Y-108840476D02*
X119485714Y-108640476D01*
X119533333Y-108640476D01*
X119561904Y-108650000D01*
X119580952Y-108669047D01*
X119590476Y-108688095D01*
X119600000Y-108726190D01*
X119600000Y-108754761D01*
X119590476Y-108792857D01*
X119580952Y-108811904D01*
X119561904Y-108830952D01*
X119533333Y-108840476D01*
X119485714Y-108840476D01*
X119666666Y-108640476D02*
X119790476Y-108640476D01*
X119723809Y-108716666D01*
X119752380Y-108716666D01*
X119771428Y-108726190D01*
X119780952Y-108735714D01*
X119790476Y-108754761D01*
X119790476Y-108802380D01*
X119780952Y-108821428D01*
X119771428Y-108830952D01*
X119752380Y-108840476D01*
X119695238Y-108840476D01*
X119676190Y-108830952D01*
X119666666Y-108821428D01*
%TO.C,FID4*%
D11*
X132119047Y-103678571D02*
X131785714Y-103678571D01*
X131785714Y-104202380D02*
X131785714Y-103202380D01*
X132261904Y-103202380D01*
X132642857Y-104202380D02*
X132642857Y-103535714D01*
X132642857Y-103202380D02*
X132595238Y-103250000D01*
X132642857Y-103297619D01*
X132690476Y-103250000D01*
X132642857Y-103202380D01*
X132642857Y-103297619D01*
X133547619Y-104202380D02*
X133547619Y-103202380D01*
X133547619Y-104154761D02*
X133452380Y-104202380D01*
X133261904Y-104202380D01*
X133166666Y-104154761D01*
X133119047Y-104107142D01*
X133071428Y-104011904D01*
X133071428Y-103726190D01*
X133119047Y-103630952D01*
X133166666Y-103583333D01*
X133261904Y-103535714D01*
X133452380Y-103535714D01*
X133547619Y-103583333D01*
X134452380Y-103535714D02*
X134452380Y-104202380D01*
X134023809Y-103535714D02*
X134023809Y-104059523D01*
X134071428Y-104154761D01*
X134166666Y-104202380D01*
X134309523Y-104202380D01*
X134404761Y-104154761D01*
X134452380Y-104107142D01*
X135357142Y-104154761D02*
X135261904Y-104202380D01*
X135071428Y-104202380D01*
X134976190Y-104154761D01*
X134928571Y-104107142D01*
X134880952Y-104011904D01*
X134880952Y-103726190D01*
X134928571Y-103630952D01*
X134976190Y-103583333D01*
X135071428Y-103535714D01*
X135261904Y-103535714D01*
X135357142Y-103583333D01*
X135785714Y-104202380D02*
X135785714Y-103535714D01*
X135785714Y-103202380D02*
X135738095Y-103250000D01*
X135785714Y-103297619D01*
X135833333Y-103250000D01*
X135785714Y-103202380D01*
X135785714Y-103297619D01*
X136690476Y-104202380D02*
X136690476Y-103678571D01*
X136642857Y-103583333D01*
X136547619Y-103535714D01*
X136357142Y-103535714D01*
X136261904Y-103583333D01*
X136690476Y-104154761D02*
X136595238Y-104202380D01*
X136357142Y-104202380D01*
X136261904Y-104154761D01*
X136214285Y-104059523D01*
X136214285Y-103964285D01*
X136261904Y-103869047D01*
X136357142Y-103821428D01*
X136595238Y-103821428D01*
X136690476Y-103773809D01*
X137309523Y-104202380D02*
X137214285Y-104154761D01*
X137166666Y-104059523D01*
X137166666Y-103202380D01*
D12*
X134285714Y-102235714D02*
X134219047Y-102235714D01*
X134219047Y-102340476D02*
X134219047Y-102140476D01*
X134314285Y-102140476D01*
X134390476Y-102340476D02*
X134390476Y-102140476D01*
X134485714Y-102340476D02*
X134485714Y-102140476D01*
X134533333Y-102140476D01*
X134561904Y-102150000D01*
X134580952Y-102169047D01*
X134590476Y-102188095D01*
X134600000Y-102226190D01*
X134600000Y-102254761D01*
X134590476Y-102292857D01*
X134580952Y-102311904D01*
X134561904Y-102330952D01*
X134533333Y-102340476D01*
X134485714Y-102340476D01*
X134771428Y-102207142D02*
X134771428Y-102340476D01*
X134723809Y-102130952D02*
X134676190Y-102273809D01*
X134800000Y-102273809D01*
%TO.C,H1*%
D11*
X127714285Y-95802380D02*
X127714285Y-94802380D01*
X128047619Y-95516666D01*
X128380952Y-94802380D01*
X128380952Y-95802380D01*
X129000000Y-95802380D02*
X128904761Y-95754761D01*
X128857142Y-95707142D01*
X128809523Y-95611904D01*
X128809523Y-95326190D01*
X128857142Y-95230952D01*
X128904761Y-95183333D01*
X129000000Y-95135714D01*
X129142857Y-95135714D01*
X129238095Y-95183333D01*
X129285714Y-95230952D01*
X129333333Y-95326190D01*
X129333333Y-95611904D01*
X129285714Y-95707142D01*
X129238095Y-95754761D01*
X129142857Y-95802380D01*
X129000000Y-95802380D01*
X130190476Y-95135714D02*
X130190476Y-95802380D01*
X129761904Y-95135714D02*
X129761904Y-95659523D01*
X129809523Y-95754761D01*
X129904761Y-95802380D01*
X130047619Y-95802380D01*
X130142857Y-95754761D01*
X130190476Y-95707142D01*
X130666666Y-95135714D02*
X130666666Y-95802380D01*
X130666666Y-95230952D02*
X130714285Y-95183333D01*
X130809523Y-95135714D01*
X130952380Y-95135714D01*
X131047619Y-95183333D01*
X131095238Y-95278571D01*
X131095238Y-95802380D01*
X131428571Y-95135714D02*
X131809523Y-95135714D01*
X131571428Y-94802380D02*
X131571428Y-95659523D01*
X131619047Y-95754761D01*
X131714285Y-95802380D01*
X131809523Y-95802380D01*
X132142857Y-95802380D02*
X132142857Y-95135714D01*
X132142857Y-94802380D02*
X132095238Y-94850000D01*
X132142857Y-94897619D01*
X132190476Y-94850000D01*
X132142857Y-94802380D01*
X132142857Y-94897619D01*
X132619047Y-95135714D02*
X132619047Y-95802380D01*
X132619047Y-95230952D02*
X132666666Y-95183333D01*
X132761904Y-95135714D01*
X132904761Y-95135714D01*
X133000000Y-95183333D01*
X133047619Y-95278571D01*
X133047619Y-95802380D01*
X133952380Y-95135714D02*
X133952380Y-95945238D01*
X133904761Y-96040476D01*
X133857142Y-96088095D01*
X133761904Y-96135714D01*
X133619047Y-96135714D01*
X133523809Y-96088095D01*
X133952380Y-95754761D02*
X133857142Y-95802380D01*
X133666666Y-95802380D01*
X133571428Y-95754761D01*
X133523809Y-95707142D01*
X133476190Y-95611904D01*
X133476190Y-95326190D01*
X133523809Y-95230952D01*
X133571428Y-95183333D01*
X133666666Y-95135714D01*
X133857142Y-95135714D01*
X133952380Y-95183333D01*
X134428571Y-95802380D02*
X134428571Y-94802380D01*
X134428571Y-95278571D02*
X135000000Y-95278571D01*
X135000000Y-95802380D02*
X135000000Y-94802380D01*
X135619047Y-95802380D02*
X135523809Y-95754761D01*
X135476190Y-95707142D01*
X135428571Y-95611904D01*
X135428571Y-95326190D01*
X135476190Y-95230952D01*
X135523809Y-95183333D01*
X135619047Y-95135714D01*
X135761904Y-95135714D01*
X135857142Y-95183333D01*
X135904761Y-95230952D01*
X135952380Y-95326190D01*
X135952380Y-95611904D01*
X135904761Y-95707142D01*
X135857142Y-95754761D01*
X135761904Y-95802380D01*
X135619047Y-95802380D01*
X136523809Y-95802380D02*
X136428571Y-95754761D01*
X136380952Y-95659523D01*
X136380952Y-94802380D01*
X137285714Y-95754761D02*
X137190476Y-95802380D01*
X137000000Y-95802380D01*
X136904761Y-95754761D01*
X136857142Y-95659523D01*
X136857142Y-95278571D01*
X136904761Y-95183333D01*
X137000000Y-95135714D01*
X137190476Y-95135714D01*
X137285714Y-95183333D01*
X137333333Y-95278571D01*
X137333333Y-95373809D01*
X136857142Y-95469047D01*
X132038095Y-92702380D02*
X132038095Y-91702380D01*
X132038095Y-92178571D02*
X132609523Y-92178571D01*
X132609523Y-92702380D02*
X132609523Y-91702380D01*
X133609523Y-92702380D02*
X133038095Y-92702380D01*
X133323809Y-92702380D02*
X133323809Y-91702380D01*
X133228571Y-91845238D01*
X133133333Y-91940476D01*
X133038095Y-91988095D01*
%TO.C,H2*%
X127714285Y-115802380D02*
X127714285Y-114802380D01*
X128047619Y-115516666D01*
X128380952Y-114802380D01*
X128380952Y-115802380D01*
X129000000Y-115802380D02*
X128904761Y-115754761D01*
X128857142Y-115707142D01*
X128809523Y-115611904D01*
X128809523Y-115326190D01*
X128857142Y-115230952D01*
X128904761Y-115183333D01*
X129000000Y-115135714D01*
X129142857Y-115135714D01*
X129238095Y-115183333D01*
X129285714Y-115230952D01*
X129333333Y-115326190D01*
X129333333Y-115611904D01*
X129285714Y-115707142D01*
X129238095Y-115754761D01*
X129142857Y-115802380D01*
X129000000Y-115802380D01*
X130190476Y-115135714D02*
X130190476Y-115802380D01*
X129761904Y-115135714D02*
X129761904Y-115659523D01*
X129809523Y-115754761D01*
X129904761Y-115802380D01*
X130047619Y-115802380D01*
X130142857Y-115754761D01*
X130190476Y-115707142D01*
X130666666Y-115135714D02*
X130666666Y-115802380D01*
X130666666Y-115230952D02*
X130714285Y-115183333D01*
X130809523Y-115135714D01*
X130952380Y-115135714D01*
X131047619Y-115183333D01*
X131095238Y-115278571D01*
X131095238Y-115802380D01*
X131428571Y-115135714D02*
X131809523Y-115135714D01*
X131571428Y-114802380D02*
X131571428Y-115659523D01*
X131619047Y-115754761D01*
X131714285Y-115802380D01*
X131809523Y-115802380D01*
X132142857Y-115802380D02*
X132142857Y-115135714D01*
X132142857Y-114802380D02*
X132095238Y-114850000D01*
X132142857Y-114897619D01*
X132190476Y-114850000D01*
X132142857Y-114802380D01*
X132142857Y-114897619D01*
X132619047Y-115135714D02*
X132619047Y-115802380D01*
X132619047Y-115230952D02*
X132666666Y-115183333D01*
X132761904Y-115135714D01*
X132904761Y-115135714D01*
X133000000Y-115183333D01*
X133047619Y-115278571D01*
X133047619Y-115802380D01*
X133952380Y-115135714D02*
X133952380Y-115945238D01*
X133904761Y-116040476D01*
X133857142Y-116088095D01*
X133761904Y-116135714D01*
X133619047Y-116135714D01*
X133523809Y-116088095D01*
X133952380Y-115754761D02*
X133857142Y-115802380D01*
X133666666Y-115802380D01*
X133571428Y-115754761D01*
X133523809Y-115707142D01*
X133476190Y-115611904D01*
X133476190Y-115326190D01*
X133523809Y-115230952D01*
X133571428Y-115183333D01*
X133666666Y-115135714D01*
X133857142Y-115135714D01*
X133952380Y-115183333D01*
X134428571Y-115802380D02*
X134428571Y-114802380D01*
X134428571Y-115278571D02*
X135000000Y-115278571D01*
X135000000Y-115802380D02*
X135000000Y-114802380D01*
X135619047Y-115802380D02*
X135523809Y-115754761D01*
X135476190Y-115707142D01*
X135428571Y-115611904D01*
X135428571Y-115326190D01*
X135476190Y-115230952D01*
X135523809Y-115183333D01*
X135619047Y-115135714D01*
X135761904Y-115135714D01*
X135857142Y-115183333D01*
X135904761Y-115230952D01*
X135952380Y-115326190D01*
X135952380Y-115611904D01*
X135904761Y-115707142D01*
X135857142Y-115754761D01*
X135761904Y-115802380D01*
X135619047Y-115802380D01*
X136523809Y-115802380D02*
X136428571Y-115754761D01*
X136380952Y-115659523D01*
X136380952Y-114802380D01*
X137285714Y-115754761D02*
X137190476Y-115802380D01*
X137000000Y-115802380D01*
X136904761Y-115754761D01*
X136857142Y-115659523D01*
X136857142Y-115278571D01*
X136904761Y-115183333D01*
X137000000Y-115135714D01*
X137190476Y-115135714D01*
X137285714Y-115183333D01*
X137333333Y-115278571D01*
X137333333Y-115373809D01*
X136857142Y-115469047D01*
X132038095Y-112702380D02*
X132038095Y-111702380D01*
X132038095Y-112178571D02*
X132609523Y-112178571D01*
X132609523Y-112702380D02*
X132609523Y-111702380D01*
X133038095Y-111797619D02*
X133085714Y-111750000D01*
X133180952Y-111702380D01*
X133419047Y-111702380D01*
X133514285Y-111750000D01*
X133561904Y-111797619D01*
X133609523Y-111892857D01*
X133609523Y-111988095D01*
X133561904Y-112130952D01*
X132990476Y-112702380D01*
X133609523Y-112702380D01*
%TO.C,J2*%
X137017142Y-101718095D02*
X137064761Y-101765714D01*
X137112380Y-101908571D01*
X137112380Y-102003809D01*
X137064761Y-102146666D01*
X136969523Y-102241904D01*
X136874285Y-102289523D01*
X136683809Y-102337142D01*
X136540952Y-102337142D01*
X136350476Y-102289523D01*
X136255238Y-102241904D01*
X136160000Y-102146666D01*
X136112380Y-102003809D01*
X136112380Y-101908571D01*
X136160000Y-101765714D01*
X136207619Y-101718095D01*
X137112380Y-101146666D02*
X137064761Y-101241904D01*
X137017142Y-101289523D01*
X136921904Y-101337142D01*
X136636190Y-101337142D01*
X136540952Y-101289523D01*
X136493333Y-101241904D01*
X136445714Y-101146666D01*
X136445714Y-101003809D01*
X136493333Y-100908571D01*
X136540952Y-100860952D01*
X136636190Y-100813333D01*
X136921904Y-100813333D01*
X137017142Y-100860952D01*
X137064761Y-100908571D01*
X137112380Y-101003809D01*
X137112380Y-101146666D01*
X136445714Y-100384761D02*
X137112380Y-100384761D01*
X136540952Y-100384761D02*
X136493333Y-100337142D01*
X136445714Y-100241904D01*
X136445714Y-100099047D01*
X136493333Y-100003809D01*
X136588571Y-99956190D01*
X137112380Y-99956190D01*
X136445714Y-99480000D02*
X137112380Y-99480000D01*
X136540952Y-99480000D02*
X136493333Y-99432380D01*
X136445714Y-99337142D01*
X136445714Y-99194285D01*
X136493333Y-99099047D01*
X136588571Y-99051428D01*
X137112380Y-99051428D01*
X137207619Y-98813333D02*
X137207619Y-98051428D01*
X136112380Y-97622857D02*
X136112380Y-97527619D01*
X136160000Y-97432380D01*
X136207619Y-97384761D01*
X136302857Y-97337142D01*
X136493333Y-97289523D01*
X136731428Y-97289523D01*
X136921904Y-97337142D01*
X137017142Y-97384761D01*
X137064761Y-97432380D01*
X137112380Y-97527619D01*
X137112380Y-97622857D01*
X137064761Y-97718095D01*
X137017142Y-97765714D01*
X136921904Y-97813333D01*
X136731428Y-97860952D01*
X136493333Y-97860952D01*
X136302857Y-97813333D01*
X136207619Y-97765714D01*
X136160000Y-97718095D01*
X136112380Y-97622857D01*
X137112380Y-96337142D02*
X137112380Y-96908571D01*
X137112380Y-96622857D02*
X136112380Y-96622857D01*
X136255238Y-96718095D01*
X136350476Y-96813333D01*
X136398095Y-96908571D01*
X137112380Y-96003809D02*
X136445714Y-95480000D01*
X136445714Y-96003809D02*
X137112380Y-95480000D01*
X136112380Y-94908571D02*
X136112380Y-94813333D01*
X136160000Y-94718095D01*
X136207619Y-94670476D01*
X136302857Y-94622857D01*
X136493333Y-94575238D01*
X136731428Y-94575238D01*
X136921904Y-94622857D01*
X137017142Y-94670476D01*
X137064761Y-94718095D01*
X137112380Y-94813333D01*
X137112380Y-94908571D01*
X137064761Y-95003809D01*
X137017142Y-95051428D01*
X136921904Y-95099047D01*
X136731428Y-95146666D01*
X136493333Y-95146666D01*
X136302857Y-95099047D01*
X136207619Y-95051428D01*
X136160000Y-95003809D01*
X136112380Y-94908571D01*
X136207619Y-94194285D02*
X136160000Y-94146666D01*
X136112380Y-94051428D01*
X136112380Y-93813333D01*
X136160000Y-93718095D01*
X136207619Y-93670476D01*
X136302857Y-93622857D01*
X136398095Y-93622857D01*
X136540952Y-93670476D01*
X137112380Y-94241904D01*
X137112380Y-93622857D01*
X133952380Y-98313333D02*
X134666666Y-98313333D01*
X134809523Y-98360952D01*
X134904761Y-98456190D01*
X134952380Y-98599047D01*
X134952380Y-98694285D01*
X134047619Y-97884761D02*
X134000000Y-97837142D01*
X133952380Y-97741904D01*
X133952380Y-97503809D01*
X134000000Y-97408571D01*
X134047619Y-97360952D01*
X134142857Y-97313333D01*
X134238095Y-97313333D01*
X134380952Y-97360952D01*
X134952380Y-97932380D01*
X134952380Y-97313333D01*
%TO.C,J3*%
X137017142Y-110258095D02*
X137064761Y-110305714D01*
X137112380Y-110448571D01*
X137112380Y-110543809D01*
X137064761Y-110686666D01*
X136969523Y-110781904D01*
X136874285Y-110829523D01*
X136683809Y-110877142D01*
X136540952Y-110877142D01*
X136350476Y-110829523D01*
X136255238Y-110781904D01*
X136160000Y-110686666D01*
X136112380Y-110543809D01*
X136112380Y-110448571D01*
X136160000Y-110305714D01*
X136207619Y-110258095D01*
X137112380Y-109686666D02*
X137064761Y-109781904D01*
X137017142Y-109829523D01*
X136921904Y-109877142D01*
X136636190Y-109877142D01*
X136540952Y-109829523D01*
X136493333Y-109781904D01*
X136445714Y-109686666D01*
X136445714Y-109543809D01*
X136493333Y-109448571D01*
X136540952Y-109400952D01*
X136636190Y-109353333D01*
X136921904Y-109353333D01*
X137017142Y-109400952D01*
X137064761Y-109448571D01*
X137112380Y-109543809D01*
X137112380Y-109686666D01*
X136445714Y-108924761D02*
X137112380Y-108924761D01*
X136540952Y-108924761D02*
X136493333Y-108877142D01*
X136445714Y-108781904D01*
X136445714Y-108639047D01*
X136493333Y-108543809D01*
X136588571Y-108496190D01*
X137112380Y-108496190D01*
X136445714Y-108020000D02*
X137112380Y-108020000D01*
X136540952Y-108020000D02*
X136493333Y-107972380D01*
X136445714Y-107877142D01*
X136445714Y-107734285D01*
X136493333Y-107639047D01*
X136588571Y-107591428D01*
X137112380Y-107591428D01*
X137207619Y-107353333D02*
X137207619Y-106591428D01*
X136112380Y-106162857D02*
X136112380Y-106067619D01*
X136160000Y-105972380D01*
X136207619Y-105924761D01*
X136302857Y-105877142D01*
X136493333Y-105829523D01*
X136731428Y-105829523D01*
X136921904Y-105877142D01*
X137017142Y-105924761D01*
X137064761Y-105972380D01*
X137112380Y-106067619D01*
X137112380Y-106162857D01*
X137064761Y-106258095D01*
X137017142Y-106305714D01*
X136921904Y-106353333D01*
X136731428Y-106400952D01*
X136493333Y-106400952D01*
X136302857Y-106353333D01*
X136207619Y-106305714D01*
X136160000Y-106258095D01*
X136112380Y-106162857D01*
X137112380Y-104877142D02*
X137112380Y-105448571D01*
X137112380Y-105162857D02*
X136112380Y-105162857D01*
X136255238Y-105258095D01*
X136350476Y-105353333D01*
X136398095Y-105448571D01*
X137112380Y-104543809D02*
X136445714Y-104020000D01*
X136445714Y-104543809D02*
X137112380Y-104020000D01*
X136112380Y-103448571D02*
X136112380Y-103353333D01*
X136160000Y-103258095D01*
X136207619Y-103210476D01*
X136302857Y-103162857D01*
X136493333Y-103115238D01*
X136731428Y-103115238D01*
X136921904Y-103162857D01*
X137017142Y-103210476D01*
X137064761Y-103258095D01*
X137112380Y-103353333D01*
X137112380Y-103448571D01*
X137064761Y-103543809D01*
X137017142Y-103591428D01*
X136921904Y-103639047D01*
X136731428Y-103686666D01*
X136493333Y-103686666D01*
X136302857Y-103639047D01*
X136207619Y-103591428D01*
X136160000Y-103543809D01*
X136112380Y-103448571D01*
X136207619Y-102734285D02*
X136160000Y-102686666D01*
X136112380Y-102591428D01*
X136112380Y-102353333D01*
X136160000Y-102258095D01*
X136207619Y-102210476D01*
X136302857Y-102162857D01*
X136398095Y-102162857D01*
X136540952Y-102210476D01*
X137112380Y-102781904D01*
X137112380Y-102162857D01*
X133952380Y-106853333D02*
X134666666Y-106853333D01*
X134809523Y-106900952D01*
X134904761Y-106996190D01*
X134952380Y-107139047D01*
X134952380Y-107234285D01*
X133952380Y-106472380D02*
X133952380Y-105853333D01*
X134333333Y-106186666D01*
X134333333Y-106043809D01*
X134380952Y-105948571D01*
X134428571Y-105900952D01*
X134523809Y-105853333D01*
X134761904Y-105853333D01*
X134857142Y-105900952D01*
X134904761Y-105948571D01*
X134952380Y-106043809D01*
X134952380Y-106329523D01*
X134904761Y-106424761D01*
X134857142Y-106472380D01*
%TO.C,C1*%
X114178571Y-95882380D02*
X113607142Y-95882380D01*
X113892857Y-95882380D02*
X113892857Y-94882380D01*
X113797619Y-95025238D01*
X113702380Y-95120476D01*
X113607142Y-95168095D01*
X114797619Y-94882380D02*
X114892857Y-94882380D01*
X114988095Y-94930000D01*
X115035714Y-94977619D01*
X115083333Y-95072857D01*
X115130952Y-95263333D01*
X115130952Y-95501428D01*
X115083333Y-95691904D01*
X115035714Y-95787142D01*
X114988095Y-95834761D01*
X114892857Y-95882380D01*
X114797619Y-95882380D01*
X114702380Y-95834761D01*
X114654761Y-95787142D01*
X114607142Y-95691904D01*
X114559523Y-95501428D01*
X114559523Y-95263333D01*
X114607142Y-95072857D01*
X114654761Y-94977619D01*
X114702380Y-94930000D01*
X114797619Y-94882380D01*
X115988095Y-95215714D02*
X115988095Y-95882380D01*
X115559523Y-95215714D02*
X115559523Y-95739523D01*
X115607142Y-95834761D01*
X115702380Y-95882380D01*
X115845238Y-95882380D01*
X115940476Y-95834761D01*
X115988095Y-95787142D01*
X116797619Y-95358571D02*
X116464285Y-95358571D01*
X116464285Y-95882380D02*
X116464285Y-94882380D01*
X116940476Y-94882380D01*
D13*
X115166666Y-93928571D02*
X115142857Y-93952380D01*
X115071428Y-93976190D01*
X115023809Y-93976190D01*
X114952380Y-93952380D01*
X114904761Y-93904761D01*
X114880952Y-93857142D01*
X114857142Y-93761904D01*
X114857142Y-93690476D01*
X114880952Y-93595238D01*
X114904761Y-93547619D01*
X114952380Y-93500000D01*
X115023809Y-93476190D01*
X115071428Y-93476190D01*
X115142857Y-93500000D01*
X115166666Y-93523809D01*
X115642857Y-93976190D02*
X115357142Y-93976190D01*
X115500000Y-93976190D02*
X115500000Y-93476190D01*
X115452380Y-93547619D01*
X115404761Y-93595238D01*
X115357142Y-93619047D01*
%TO.C,C2*%
D11*
X118157142Y-94882380D02*
X118252380Y-94882380D01*
X118347619Y-94930000D01*
X118395238Y-94977619D01*
X118442857Y-95072857D01*
X118490476Y-95263333D01*
X118490476Y-95501428D01*
X118442857Y-95691904D01*
X118395238Y-95787142D01*
X118347619Y-95834761D01*
X118252380Y-95882380D01*
X118157142Y-95882380D01*
X118061904Y-95834761D01*
X118014285Y-95787142D01*
X117966666Y-95691904D01*
X117919047Y-95501428D01*
X117919047Y-95263333D01*
X117966666Y-95072857D01*
X118014285Y-94977619D01*
X118061904Y-94930000D01*
X118157142Y-94882380D01*
X118919047Y-95787142D02*
X118966666Y-95834761D01*
X118919047Y-95882380D01*
X118871428Y-95834761D01*
X118919047Y-95787142D01*
X118919047Y-95882380D01*
X119919047Y-95882380D02*
X119347619Y-95882380D01*
X119633333Y-95882380D02*
X119633333Y-94882380D01*
X119538095Y-95025238D01*
X119442857Y-95120476D01*
X119347619Y-95168095D01*
X120776190Y-95215714D02*
X120776190Y-95882380D01*
X120347619Y-95215714D02*
X120347619Y-95739523D01*
X120395238Y-95834761D01*
X120490476Y-95882380D01*
X120633333Y-95882380D01*
X120728571Y-95834761D01*
X120776190Y-95787142D01*
X121585714Y-95358571D02*
X121252380Y-95358571D01*
X121252380Y-95882380D02*
X121252380Y-94882380D01*
X121728571Y-94882380D01*
D13*
X119716666Y-93928571D02*
X119692857Y-93952380D01*
X119621428Y-93976190D01*
X119573809Y-93976190D01*
X119502380Y-93952380D01*
X119454761Y-93904761D01*
X119430952Y-93857142D01*
X119407142Y-93761904D01*
X119407142Y-93690476D01*
X119430952Y-93595238D01*
X119454761Y-93547619D01*
X119502380Y-93500000D01*
X119573809Y-93476190D01*
X119621428Y-93476190D01*
X119692857Y-93500000D01*
X119716666Y-93523809D01*
X119907142Y-93523809D02*
X119930952Y-93500000D01*
X119978571Y-93476190D01*
X120097619Y-93476190D01*
X120145238Y-93500000D01*
X120169047Y-93523809D01*
X120192857Y-93571428D01*
X120192857Y-93619047D01*
X120169047Y-93690476D01*
X119883333Y-93976190D01*
X120192857Y-93976190D01*
%TO.C,C3*%
D11*
X113928571Y-112882380D02*
X113357142Y-112882380D01*
X113642857Y-112882380D02*
X113642857Y-111882380D01*
X113547619Y-112025238D01*
X113452380Y-112120476D01*
X113357142Y-112168095D01*
X114547619Y-111882380D02*
X114642857Y-111882380D01*
X114738095Y-111930000D01*
X114785714Y-111977619D01*
X114833333Y-112072857D01*
X114880952Y-112263333D01*
X114880952Y-112501428D01*
X114833333Y-112691904D01*
X114785714Y-112787142D01*
X114738095Y-112834761D01*
X114642857Y-112882380D01*
X114547619Y-112882380D01*
X114452380Y-112834761D01*
X114404761Y-112787142D01*
X114357142Y-112691904D01*
X114309523Y-112501428D01*
X114309523Y-112263333D01*
X114357142Y-112072857D01*
X114404761Y-111977619D01*
X114452380Y-111930000D01*
X114547619Y-111882380D01*
X115738095Y-112215714D02*
X115738095Y-112882380D01*
X115309523Y-112215714D02*
X115309523Y-112739523D01*
X115357142Y-112834761D01*
X115452380Y-112882380D01*
X115595238Y-112882380D01*
X115690476Y-112834761D01*
X115738095Y-112787142D01*
X116547619Y-112358571D02*
X116214285Y-112358571D01*
X116214285Y-112882380D02*
X116214285Y-111882380D01*
X116690476Y-111882380D01*
D13*
X114916666Y-110928571D02*
X114892857Y-110952380D01*
X114821428Y-110976190D01*
X114773809Y-110976190D01*
X114702380Y-110952380D01*
X114654761Y-110904761D01*
X114630952Y-110857142D01*
X114607142Y-110761904D01*
X114607142Y-110690476D01*
X114630952Y-110595238D01*
X114654761Y-110547619D01*
X114702380Y-110500000D01*
X114773809Y-110476190D01*
X114821428Y-110476190D01*
X114892857Y-110500000D01*
X114916666Y-110523809D01*
X115083333Y-110476190D02*
X115392857Y-110476190D01*
X115226190Y-110666666D01*
X115297619Y-110666666D01*
X115345238Y-110690476D01*
X115369047Y-110714285D01*
X115392857Y-110761904D01*
X115392857Y-110880952D01*
X115369047Y-110928571D01*
X115345238Y-110952380D01*
X115297619Y-110976190D01*
X115154761Y-110976190D01*
X115107142Y-110952380D01*
X115083333Y-110928571D01*
%TO.C,C4*%
D11*
X117857142Y-111882380D02*
X117952380Y-111882380D01*
X118047619Y-111930000D01*
X118095238Y-111977619D01*
X118142857Y-112072857D01*
X118190476Y-112263333D01*
X118190476Y-112501428D01*
X118142857Y-112691904D01*
X118095238Y-112787142D01*
X118047619Y-112834761D01*
X117952380Y-112882380D01*
X117857142Y-112882380D01*
X117761904Y-112834761D01*
X117714285Y-112787142D01*
X117666666Y-112691904D01*
X117619047Y-112501428D01*
X117619047Y-112263333D01*
X117666666Y-112072857D01*
X117714285Y-111977619D01*
X117761904Y-111930000D01*
X117857142Y-111882380D01*
X118619047Y-112787142D02*
X118666666Y-112834761D01*
X118619047Y-112882380D01*
X118571428Y-112834761D01*
X118619047Y-112787142D01*
X118619047Y-112882380D01*
X119619047Y-112882380D02*
X119047619Y-112882380D01*
X119333333Y-112882380D02*
X119333333Y-111882380D01*
X119238095Y-112025238D01*
X119142857Y-112120476D01*
X119047619Y-112168095D01*
X120476190Y-112215714D02*
X120476190Y-112882380D01*
X120047619Y-112215714D02*
X120047619Y-112739523D01*
X120095238Y-112834761D01*
X120190476Y-112882380D01*
X120333333Y-112882380D01*
X120428571Y-112834761D01*
X120476190Y-112787142D01*
X121285714Y-112358571D02*
X120952380Y-112358571D01*
X120952380Y-112882380D02*
X120952380Y-111882380D01*
X121428571Y-111882380D01*
D13*
X119416666Y-110928571D02*
X119392857Y-110952380D01*
X119321428Y-110976190D01*
X119273809Y-110976190D01*
X119202380Y-110952380D01*
X119154761Y-110904761D01*
X119130952Y-110857142D01*
X119107142Y-110761904D01*
X119107142Y-110690476D01*
X119130952Y-110595238D01*
X119154761Y-110547619D01*
X119202380Y-110500000D01*
X119273809Y-110476190D01*
X119321428Y-110476190D01*
X119392857Y-110500000D01*
X119416666Y-110523809D01*
X119845238Y-110642857D02*
X119845238Y-110976190D01*
X119726190Y-110452380D02*
X119607142Y-110809523D01*
X119916666Y-110809523D01*
%TO.C,C5*%
D11*
X124367619Y-96869047D02*
X124320000Y-96821428D01*
X124272380Y-96726190D01*
X124272380Y-96488095D01*
X124320000Y-96392857D01*
X124367619Y-96345238D01*
X124462857Y-96297619D01*
X124558095Y-96297619D01*
X124700952Y-96345238D01*
X125272380Y-96916666D01*
X125272380Y-96297619D01*
X124367619Y-95916666D02*
X124320000Y-95869047D01*
X124272380Y-95773809D01*
X124272380Y-95535714D01*
X124320000Y-95440476D01*
X124367619Y-95392857D01*
X124462857Y-95345238D01*
X124558095Y-95345238D01*
X124700952Y-95392857D01*
X125272380Y-95964285D01*
X125272380Y-95345238D01*
X124272380Y-94726190D02*
X124272380Y-94630952D01*
X124320000Y-94535714D01*
X124367619Y-94488095D01*
X124462857Y-94440476D01*
X124653333Y-94392857D01*
X124891428Y-94392857D01*
X125081904Y-94440476D01*
X125177142Y-94488095D01*
X125224761Y-94535714D01*
X125272380Y-94630952D01*
X125272380Y-94726190D01*
X125224761Y-94821428D01*
X125177142Y-94869047D01*
X125081904Y-94916666D01*
X124891428Y-94964285D01*
X124653333Y-94964285D01*
X124462857Y-94916666D01*
X124367619Y-94869047D01*
X124320000Y-94821428D01*
X124272380Y-94726190D01*
X124605714Y-93964285D02*
X125605714Y-93964285D01*
X124653333Y-93964285D02*
X124605714Y-93869047D01*
X124605714Y-93678571D01*
X124653333Y-93583333D01*
X124700952Y-93535714D01*
X124796190Y-93488095D01*
X125081904Y-93488095D01*
X125177142Y-93535714D01*
X125224761Y-93583333D01*
X125272380Y-93678571D01*
X125272380Y-93869047D01*
X125224761Y-93964285D01*
X124748571Y-92726190D02*
X124748571Y-93059523D01*
X125272380Y-93059523D02*
X124272380Y-93059523D01*
X124272380Y-92583333D01*
D13*
X126678571Y-94833333D02*
X126702380Y-94857142D01*
X126726190Y-94928571D01*
X126726190Y-94976190D01*
X126702380Y-95047619D01*
X126654761Y-95095238D01*
X126607142Y-95119047D01*
X126511904Y-95142857D01*
X126440476Y-95142857D01*
X126345238Y-95119047D01*
X126297619Y-95095238D01*
X126250000Y-95047619D01*
X126226190Y-94976190D01*
X126226190Y-94928571D01*
X126250000Y-94857142D01*
X126273809Y-94833333D01*
X126226190Y-94380952D02*
X126226190Y-94619047D01*
X126464285Y-94642857D01*
X126440476Y-94619047D01*
X126416666Y-94571428D01*
X126416666Y-94452380D01*
X126440476Y-94404761D01*
X126464285Y-94380952D01*
X126511904Y-94357142D01*
X126630952Y-94357142D01*
X126678571Y-94380952D01*
X126702380Y-94404761D01*
X126726190Y-94452380D01*
X126726190Y-94571428D01*
X126702380Y-94619047D01*
X126678571Y-94642857D01*
%TO.C,C6*%
D11*
X124367619Y-101419047D02*
X124320000Y-101371428D01*
X124272380Y-101276190D01*
X124272380Y-101038095D01*
X124320000Y-100942857D01*
X124367619Y-100895238D01*
X124462857Y-100847619D01*
X124558095Y-100847619D01*
X124700952Y-100895238D01*
X125272380Y-101466666D01*
X125272380Y-100847619D01*
X124367619Y-100466666D02*
X124320000Y-100419047D01*
X124272380Y-100323809D01*
X124272380Y-100085714D01*
X124320000Y-99990476D01*
X124367619Y-99942857D01*
X124462857Y-99895238D01*
X124558095Y-99895238D01*
X124700952Y-99942857D01*
X125272380Y-100514285D01*
X125272380Y-99895238D01*
X124272380Y-99276190D02*
X124272380Y-99180952D01*
X124320000Y-99085714D01*
X124367619Y-99038095D01*
X124462857Y-98990476D01*
X124653333Y-98942857D01*
X124891428Y-98942857D01*
X125081904Y-98990476D01*
X125177142Y-99038095D01*
X125224761Y-99085714D01*
X125272380Y-99180952D01*
X125272380Y-99276190D01*
X125224761Y-99371428D01*
X125177142Y-99419047D01*
X125081904Y-99466666D01*
X124891428Y-99514285D01*
X124653333Y-99514285D01*
X124462857Y-99466666D01*
X124367619Y-99419047D01*
X124320000Y-99371428D01*
X124272380Y-99276190D01*
X124605714Y-98514285D02*
X125605714Y-98514285D01*
X124653333Y-98514285D02*
X124605714Y-98419047D01*
X124605714Y-98228571D01*
X124653333Y-98133333D01*
X124700952Y-98085714D01*
X124796190Y-98038095D01*
X125081904Y-98038095D01*
X125177142Y-98085714D01*
X125224761Y-98133333D01*
X125272380Y-98228571D01*
X125272380Y-98419047D01*
X125224761Y-98514285D01*
X124748571Y-97276190D02*
X124748571Y-97609523D01*
X125272380Y-97609523D02*
X124272380Y-97609523D01*
X124272380Y-97133333D01*
D13*
X126678571Y-99383333D02*
X126702380Y-99407142D01*
X126726190Y-99478571D01*
X126726190Y-99526190D01*
X126702380Y-99597619D01*
X126654761Y-99645238D01*
X126607142Y-99669047D01*
X126511904Y-99692857D01*
X126440476Y-99692857D01*
X126345238Y-99669047D01*
X126297619Y-99645238D01*
X126250000Y-99597619D01*
X126226190Y-99526190D01*
X126226190Y-99478571D01*
X126250000Y-99407142D01*
X126273809Y-99383333D01*
X126226190Y-98954761D02*
X126226190Y-99050000D01*
X126250000Y-99097619D01*
X126273809Y-99121428D01*
X126345238Y-99169047D01*
X126440476Y-99192857D01*
X126630952Y-99192857D01*
X126678571Y-99169047D01*
X126702380Y-99145238D01*
X126726190Y-99097619D01*
X126726190Y-99002380D01*
X126702380Y-98954761D01*
X126678571Y-98930952D01*
X126630952Y-98907142D01*
X126511904Y-98907142D01*
X126464285Y-98930952D01*
X126440476Y-98954761D01*
X126416666Y-99002380D01*
X126416666Y-99097619D01*
X126440476Y-99145238D01*
X126464285Y-99169047D01*
X126511904Y-99192857D01*
%TO.C,C7*%
D11*
X124367619Y-107319047D02*
X124320000Y-107271428D01*
X124272380Y-107176190D01*
X124272380Y-106938095D01*
X124320000Y-106842857D01*
X124367619Y-106795238D01*
X124462857Y-106747619D01*
X124558095Y-106747619D01*
X124700952Y-106795238D01*
X125272380Y-107366666D01*
X125272380Y-106747619D01*
X124367619Y-106366666D02*
X124320000Y-106319047D01*
X124272380Y-106223809D01*
X124272380Y-105985714D01*
X124320000Y-105890476D01*
X124367619Y-105842857D01*
X124462857Y-105795238D01*
X124558095Y-105795238D01*
X124700952Y-105842857D01*
X125272380Y-106414285D01*
X125272380Y-105795238D01*
X124272380Y-105176190D02*
X124272380Y-105080952D01*
X124320000Y-104985714D01*
X124367619Y-104938095D01*
X124462857Y-104890476D01*
X124653333Y-104842857D01*
X124891428Y-104842857D01*
X125081904Y-104890476D01*
X125177142Y-104938095D01*
X125224761Y-104985714D01*
X125272380Y-105080952D01*
X125272380Y-105176190D01*
X125224761Y-105271428D01*
X125177142Y-105319047D01*
X125081904Y-105366666D01*
X124891428Y-105414285D01*
X124653333Y-105414285D01*
X124462857Y-105366666D01*
X124367619Y-105319047D01*
X124320000Y-105271428D01*
X124272380Y-105176190D01*
X124605714Y-104414285D02*
X125605714Y-104414285D01*
X124653333Y-104414285D02*
X124605714Y-104319047D01*
X124605714Y-104128571D01*
X124653333Y-104033333D01*
X124700952Y-103985714D01*
X124796190Y-103938095D01*
X125081904Y-103938095D01*
X125177142Y-103985714D01*
X125224761Y-104033333D01*
X125272380Y-104128571D01*
X125272380Y-104319047D01*
X125224761Y-104414285D01*
X124748571Y-103176190D02*
X124748571Y-103509523D01*
X125272380Y-103509523D02*
X124272380Y-103509523D01*
X124272380Y-103033333D01*
D13*
X126678571Y-105283333D02*
X126702380Y-105307142D01*
X126726190Y-105378571D01*
X126726190Y-105426190D01*
X126702380Y-105497619D01*
X126654761Y-105545238D01*
X126607142Y-105569047D01*
X126511904Y-105592857D01*
X126440476Y-105592857D01*
X126345238Y-105569047D01*
X126297619Y-105545238D01*
X126250000Y-105497619D01*
X126226190Y-105426190D01*
X126226190Y-105378571D01*
X126250000Y-105307142D01*
X126273809Y-105283333D01*
X126226190Y-105116666D02*
X126226190Y-104783333D01*
X126726190Y-104997619D01*
%TO.C,C8*%
D11*
X124367619Y-111869047D02*
X124320000Y-111821428D01*
X124272380Y-111726190D01*
X124272380Y-111488095D01*
X124320000Y-111392857D01*
X124367619Y-111345238D01*
X124462857Y-111297619D01*
X124558095Y-111297619D01*
X124700952Y-111345238D01*
X125272380Y-111916666D01*
X125272380Y-111297619D01*
X124367619Y-110916666D02*
X124320000Y-110869047D01*
X124272380Y-110773809D01*
X124272380Y-110535714D01*
X124320000Y-110440476D01*
X124367619Y-110392857D01*
X124462857Y-110345238D01*
X124558095Y-110345238D01*
X124700952Y-110392857D01*
X125272380Y-110964285D01*
X125272380Y-110345238D01*
X124272380Y-109726190D02*
X124272380Y-109630952D01*
X124320000Y-109535714D01*
X124367619Y-109488095D01*
X124462857Y-109440476D01*
X124653333Y-109392857D01*
X124891428Y-109392857D01*
X125081904Y-109440476D01*
X125177142Y-109488095D01*
X125224761Y-109535714D01*
X125272380Y-109630952D01*
X125272380Y-109726190D01*
X125224761Y-109821428D01*
X125177142Y-109869047D01*
X125081904Y-109916666D01*
X124891428Y-109964285D01*
X124653333Y-109964285D01*
X124462857Y-109916666D01*
X124367619Y-109869047D01*
X124320000Y-109821428D01*
X124272380Y-109726190D01*
X124605714Y-108964285D02*
X125605714Y-108964285D01*
X124653333Y-108964285D02*
X124605714Y-108869047D01*
X124605714Y-108678571D01*
X124653333Y-108583333D01*
X124700952Y-108535714D01*
X124796190Y-108488095D01*
X125081904Y-108488095D01*
X125177142Y-108535714D01*
X125224761Y-108583333D01*
X125272380Y-108678571D01*
X125272380Y-108869047D01*
X125224761Y-108964285D01*
X124748571Y-107726190D02*
X124748571Y-108059523D01*
X125272380Y-108059523D02*
X124272380Y-108059523D01*
X124272380Y-107583333D01*
D13*
X126678571Y-109833333D02*
X126702380Y-109857142D01*
X126726190Y-109928571D01*
X126726190Y-109976190D01*
X126702380Y-110047619D01*
X126654761Y-110095238D01*
X126607142Y-110119047D01*
X126511904Y-110142857D01*
X126440476Y-110142857D01*
X126345238Y-110119047D01*
X126297619Y-110095238D01*
X126250000Y-110047619D01*
X126226190Y-109976190D01*
X126226190Y-109928571D01*
X126250000Y-109857142D01*
X126273809Y-109833333D01*
X126440476Y-109547619D02*
X126416666Y-109595238D01*
X126392857Y-109619047D01*
X126345238Y-109642857D01*
X126321428Y-109642857D01*
X126273809Y-109619047D01*
X126250000Y-109595238D01*
X126226190Y-109547619D01*
X126226190Y-109452380D01*
X126250000Y-109404761D01*
X126273809Y-109380952D01*
X126321428Y-109357142D01*
X126345238Y-109357142D01*
X126392857Y-109380952D01*
X126416666Y-109404761D01*
X126440476Y-109452380D01*
X126440476Y-109547619D01*
X126464285Y-109595238D01*
X126488095Y-109619047D01*
X126535714Y-109642857D01*
X126630952Y-109642857D01*
X126678571Y-109619047D01*
X126702380Y-109595238D01*
X126726190Y-109547619D01*
X126726190Y-109452380D01*
X126702380Y-109404761D01*
X126678571Y-109380952D01*
X126630952Y-109357142D01*
X126535714Y-109357142D01*
X126488095Y-109380952D01*
X126464285Y-109404761D01*
X126440476Y-109452380D01*
%TO.C,FB1*%
D11*
X121278571Y-96607142D02*
X121278571Y-96940476D01*
X121802380Y-96940476D02*
X120802380Y-96940476D01*
X120802380Y-96464285D01*
X121754761Y-95702380D02*
X121802380Y-95797619D01*
X121802380Y-95988095D01*
X121754761Y-96083333D01*
X121659523Y-96130952D01*
X121278571Y-96130952D01*
X121183333Y-96083333D01*
X121135714Y-95988095D01*
X121135714Y-95797619D01*
X121183333Y-95702380D01*
X121278571Y-95654761D01*
X121373809Y-95654761D01*
X121469047Y-96130952D01*
X121802380Y-95226190D02*
X121135714Y-95226190D01*
X121326190Y-95226190D02*
X121230952Y-95178571D01*
X121183333Y-95130952D01*
X121135714Y-95035714D01*
X121135714Y-94940476D01*
X121802380Y-94607142D02*
X121135714Y-94607142D01*
X121326190Y-94607142D02*
X121230952Y-94559523D01*
X121183333Y-94511904D01*
X121135714Y-94416666D01*
X121135714Y-94321428D01*
X121802380Y-93988095D02*
X121135714Y-93988095D01*
X120802380Y-93988095D02*
X120850000Y-94035714D01*
X120897619Y-93988095D01*
X120850000Y-93940476D01*
X120802380Y-93988095D01*
X120897619Y-93988095D01*
X121135714Y-93654761D02*
X121135714Y-93273809D01*
X120802380Y-93511904D02*
X121659523Y-93511904D01*
X121754761Y-93464285D01*
X121802380Y-93369047D01*
X121802380Y-93273809D01*
X121754761Y-92559523D02*
X121802380Y-92654761D01*
X121802380Y-92845238D01*
X121754761Y-92940476D01*
X121659523Y-92988095D01*
X121278571Y-92988095D01*
X121183333Y-92940476D01*
X121135714Y-92845238D01*
X121135714Y-92654761D01*
X121183333Y-92559523D01*
X121278571Y-92511904D01*
X121373809Y-92511904D01*
X121469047Y-92988095D01*
D13*
X122964285Y-95166666D02*
X122964285Y-95333333D01*
X123226190Y-95333333D02*
X122726190Y-95333333D01*
X122726190Y-95095238D01*
X122964285Y-94738095D02*
X122988095Y-94666666D01*
X123011904Y-94642857D01*
X123059523Y-94619047D01*
X123130952Y-94619047D01*
X123178571Y-94642857D01*
X123202380Y-94666666D01*
X123226190Y-94714285D01*
X123226190Y-94904761D01*
X122726190Y-94904761D01*
X122726190Y-94738095D01*
X122750000Y-94690476D01*
X122773809Y-94666666D01*
X122821428Y-94642857D01*
X122869047Y-94642857D01*
X122916666Y-94666666D01*
X122940476Y-94690476D01*
X122964285Y-94738095D01*
X122964285Y-94904761D01*
X123226190Y-94142857D02*
X123226190Y-94428571D01*
X123226190Y-94285714D02*
X122726190Y-94285714D01*
X122797619Y-94333333D01*
X122845238Y-94380952D01*
X122869047Y-94428571D01*
%TO.C,FB2*%
D11*
X121278571Y-101169642D02*
X121278571Y-101502976D01*
X121802380Y-101502976D02*
X120802380Y-101502976D01*
X120802380Y-101026785D01*
X121754761Y-100264880D02*
X121802380Y-100360119D01*
X121802380Y-100550595D01*
X121754761Y-100645833D01*
X121659523Y-100693452D01*
X121278571Y-100693452D01*
X121183333Y-100645833D01*
X121135714Y-100550595D01*
X121135714Y-100360119D01*
X121183333Y-100264880D01*
X121278571Y-100217261D01*
X121373809Y-100217261D01*
X121469047Y-100693452D01*
X121802380Y-99788690D02*
X121135714Y-99788690D01*
X121326190Y-99788690D02*
X121230952Y-99741071D01*
X121183333Y-99693452D01*
X121135714Y-99598214D01*
X121135714Y-99502976D01*
X121802380Y-99169642D02*
X121135714Y-99169642D01*
X121326190Y-99169642D02*
X121230952Y-99122023D01*
X121183333Y-99074404D01*
X121135714Y-98979166D01*
X121135714Y-98883928D01*
X121802380Y-98550595D02*
X121135714Y-98550595D01*
X120802380Y-98550595D02*
X120850000Y-98598214D01*
X120897619Y-98550595D01*
X120850000Y-98502976D01*
X120802380Y-98550595D01*
X120897619Y-98550595D01*
X121135714Y-98217261D02*
X121135714Y-97836309D01*
X120802380Y-98074404D02*
X121659523Y-98074404D01*
X121754761Y-98026785D01*
X121802380Y-97931547D01*
X121802380Y-97836309D01*
X121754761Y-97122023D02*
X121802380Y-97217261D01*
X121802380Y-97407738D01*
X121754761Y-97502976D01*
X121659523Y-97550595D01*
X121278571Y-97550595D01*
X121183333Y-97502976D01*
X121135714Y-97407738D01*
X121135714Y-97217261D01*
X121183333Y-97122023D01*
X121278571Y-97074404D01*
X121373809Y-97074404D01*
X121469047Y-97550595D01*
D13*
X122964285Y-99729166D02*
X122964285Y-99895833D01*
X123226190Y-99895833D02*
X122726190Y-99895833D01*
X122726190Y-99657738D01*
X122964285Y-99300595D02*
X122988095Y-99229166D01*
X123011904Y-99205357D01*
X123059523Y-99181547D01*
X123130952Y-99181547D01*
X123178571Y-99205357D01*
X123202380Y-99229166D01*
X123226190Y-99276785D01*
X123226190Y-99467261D01*
X122726190Y-99467261D01*
X122726190Y-99300595D01*
X122750000Y-99252976D01*
X122773809Y-99229166D01*
X122821428Y-99205357D01*
X122869047Y-99205357D01*
X122916666Y-99229166D01*
X122940476Y-99252976D01*
X122964285Y-99300595D01*
X122964285Y-99467261D01*
X122773809Y-98991071D02*
X122750000Y-98967261D01*
X122726190Y-98919642D01*
X122726190Y-98800595D01*
X122750000Y-98752976D01*
X122773809Y-98729166D01*
X122821428Y-98705357D01*
X122869047Y-98705357D01*
X122940476Y-98729166D01*
X123226190Y-99014880D01*
X123226190Y-98705357D01*
%TO.C,FB3*%
D11*
X121278571Y-107044642D02*
X121278571Y-107377976D01*
X121802380Y-107377976D02*
X120802380Y-107377976D01*
X120802380Y-106901785D01*
X121754761Y-106139880D02*
X121802380Y-106235119D01*
X121802380Y-106425595D01*
X121754761Y-106520833D01*
X121659523Y-106568452D01*
X121278571Y-106568452D01*
X121183333Y-106520833D01*
X121135714Y-106425595D01*
X121135714Y-106235119D01*
X121183333Y-106139880D01*
X121278571Y-106092261D01*
X121373809Y-106092261D01*
X121469047Y-106568452D01*
X121802380Y-105663690D02*
X121135714Y-105663690D01*
X121326190Y-105663690D02*
X121230952Y-105616071D01*
X121183333Y-105568452D01*
X121135714Y-105473214D01*
X121135714Y-105377976D01*
X121802380Y-105044642D02*
X121135714Y-105044642D01*
X121326190Y-105044642D02*
X121230952Y-104997023D01*
X121183333Y-104949404D01*
X121135714Y-104854166D01*
X121135714Y-104758928D01*
X121802380Y-104425595D02*
X121135714Y-104425595D01*
X120802380Y-104425595D02*
X120850000Y-104473214D01*
X120897619Y-104425595D01*
X120850000Y-104377976D01*
X120802380Y-104425595D01*
X120897619Y-104425595D01*
X121135714Y-104092261D02*
X121135714Y-103711309D01*
X120802380Y-103949404D02*
X121659523Y-103949404D01*
X121754761Y-103901785D01*
X121802380Y-103806547D01*
X121802380Y-103711309D01*
X121754761Y-102997023D02*
X121802380Y-103092261D01*
X121802380Y-103282738D01*
X121754761Y-103377976D01*
X121659523Y-103425595D01*
X121278571Y-103425595D01*
X121183333Y-103377976D01*
X121135714Y-103282738D01*
X121135714Y-103092261D01*
X121183333Y-102997023D01*
X121278571Y-102949404D01*
X121373809Y-102949404D01*
X121469047Y-103425595D01*
D13*
X122964285Y-105604166D02*
X122964285Y-105770833D01*
X123226190Y-105770833D02*
X122726190Y-105770833D01*
X122726190Y-105532738D01*
X122964285Y-105175595D02*
X122988095Y-105104166D01*
X123011904Y-105080357D01*
X123059523Y-105056547D01*
X123130952Y-105056547D01*
X123178571Y-105080357D01*
X123202380Y-105104166D01*
X123226190Y-105151785D01*
X123226190Y-105342261D01*
X122726190Y-105342261D01*
X122726190Y-105175595D01*
X122750000Y-105127976D01*
X122773809Y-105104166D01*
X122821428Y-105080357D01*
X122869047Y-105080357D01*
X122916666Y-105104166D01*
X122940476Y-105127976D01*
X122964285Y-105175595D01*
X122964285Y-105342261D01*
X122726190Y-104889880D02*
X122726190Y-104580357D01*
X122916666Y-104747023D01*
X122916666Y-104675595D01*
X122940476Y-104627976D01*
X122964285Y-104604166D01*
X123011904Y-104580357D01*
X123130952Y-104580357D01*
X123178571Y-104604166D01*
X123202380Y-104627976D01*
X123226190Y-104675595D01*
X123226190Y-104818452D01*
X123202380Y-104866071D01*
X123178571Y-104889880D01*
%TO.C,FB4*%
D11*
X121278571Y-111607142D02*
X121278571Y-111940476D01*
X121802380Y-111940476D02*
X120802380Y-111940476D01*
X120802380Y-111464285D01*
X121754761Y-110702380D02*
X121802380Y-110797619D01*
X121802380Y-110988095D01*
X121754761Y-111083333D01*
X121659523Y-111130952D01*
X121278571Y-111130952D01*
X121183333Y-111083333D01*
X121135714Y-110988095D01*
X121135714Y-110797619D01*
X121183333Y-110702380D01*
X121278571Y-110654761D01*
X121373809Y-110654761D01*
X121469047Y-111130952D01*
X121802380Y-110226190D02*
X121135714Y-110226190D01*
X121326190Y-110226190D02*
X121230952Y-110178571D01*
X121183333Y-110130952D01*
X121135714Y-110035714D01*
X121135714Y-109940476D01*
X121802380Y-109607142D02*
X121135714Y-109607142D01*
X121326190Y-109607142D02*
X121230952Y-109559523D01*
X121183333Y-109511904D01*
X121135714Y-109416666D01*
X121135714Y-109321428D01*
X121802380Y-108988095D02*
X121135714Y-108988095D01*
X120802380Y-108988095D02*
X120850000Y-109035714D01*
X120897619Y-108988095D01*
X120850000Y-108940476D01*
X120802380Y-108988095D01*
X120897619Y-108988095D01*
X121135714Y-108654761D02*
X121135714Y-108273809D01*
X120802380Y-108511904D02*
X121659523Y-108511904D01*
X121754761Y-108464285D01*
X121802380Y-108369047D01*
X121802380Y-108273809D01*
X121754761Y-107559523D02*
X121802380Y-107654761D01*
X121802380Y-107845238D01*
X121754761Y-107940476D01*
X121659523Y-107988095D01*
X121278571Y-107988095D01*
X121183333Y-107940476D01*
X121135714Y-107845238D01*
X121135714Y-107654761D01*
X121183333Y-107559523D01*
X121278571Y-107511904D01*
X121373809Y-107511904D01*
X121469047Y-107988095D01*
D13*
X122964285Y-110166666D02*
X122964285Y-110333333D01*
X123226190Y-110333333D02*
X122726190Y-110333333D01*
X122726190Y-110095238D01*
X122964285Y-109738095D02*
X122988095Y-109666666D01*
X123011904Y-109642857D01*
X123059523Y-109619047D01*
X123130952Y-109619047D01*
X123178571Y-109642857D01*
X123202380Y-109666666D01*
X123226190Y-109714285D01*
X123226190Y-109904761D01*
X122726190Y-109904761D01*
X122726190Y-109738095D01*
X122750000Y-109690476D01*
X122773809Y-109666666D01*
X122821428Y-109642857D01*
X122869047Y-109642857D01*
X122916666Y-109666666D01*
X122940476Y-109690476D01*
X122964285Y-109738095D01*
X122964285Y-109904761D01*
X122892857Y-109190476D02*
X123226190Y-109190476D01*
X122702380Y-109309523D02*
X123059523Y-109428571D01*
X123059523Y-109119047D01*
%TO.C,R1*%
D11*
X115602380Y-103750000D02*
X115602380Y-103940476D01*
X115650000Y-104035714D01*
X115697619Y-104083333D01*
X115840476Y-104178571D01*
X116030952Y-104226190D01*
X116411904Y-104226190D01*
X116507142Y-104178571D01*
X116554761Y-104130952D01*
X116602380Y-104035714D01*
X116602380Y-103845238D01*
X116554761Y-103750000D01*
X116507142Y-103702380D01*
X116411904Y-103654761D01*
X116173809Y-103654761D01*
X116078571Y-103702380D01*
X116030952Y-103750000D01*
X115983333Y-103845238D01*
X115983333Y-104035714D01*
X116030952Y-104130952D01*
X116078571Y-104178571D01*
X116173809Y-104226190D01*
X116602380Y-103178571D02*
X116602380Y-102988095D01*
X116554761Y-102892857D01*
X116507142Y-102845238D01*
X116364285Y-102750000D01*
X116173809Y-102702380D01*
X115792857Y-102702380D01*
X115697619Y-102750000D01*
X115650000Y-102797619D01*
X115602380Y-102892857D01*
X115602380Y-103083333D01*
X115650000Y-103178571D01*
X115697619Y-103226190D01*
X115792857Y-103273809D01*
X116030952Y-103273809D01*
X116126190Y-103226190D01*
X116173809Y-103178571D01*
X116221428Y-103083333D01*
X116221428Y-102892857D01*
X116173809Y-102797619D01*
X116126190Y-102750000D01*
X116030952Y-102702380D01*
X116507142Y-102273809D02*
X116554761Y-102226190D01*
X116602380Y-102273809D01*
X116554761Y-102321428D01*
X116507142Y-102273809D01*
X116602380Y-102273809D01*
X116030952Y-101654761D02*
X115983333Y-101750000D01*
X115935714Y-101797619D01*
X115840476Y-101845238D01*
X115792857Y-101845238D01*
X115697619Y-101797619D01*
X115650000Y-101750000D01*
X115602380Y-101654761D01*
X115602380Y-101464285D01*
X115650000Y-101369047D01*
X115697619Y-101321428D01*
X115792857Y-101273809D01*
X115840476Y-101273809D01*
X115935714Y-101321428D01*
X115983333Y-101369047D01*
X116030952Y-101464285D01*
X116030952Y-101654761D01*
X116078571Y-101750000D01*
X116126190Y-101797619D01*
X116221428Y-101845238D01*
X116411904Y-101845238D01*
X116507142Y-101797619D01*
X116554761Y-101750000D01*
X116602380Y-101654761D01*
X116602380Y-101464285D01*
X116554761Y-101369047D01*
X116507142Y-101321428D01*
X116411904Y-101273809D01*
X116221428Y-101273809D01*
X116126190Y-101321428D01*
X116078571Y-101369047D01*
X116030952Y-101464285D01*
X116602380Y-100845238D02*
X115602380Y-100845238D01*
X116602380Y-100273809D02*
X116030952Y-100702380D01*
X115602380Y-100273809D02*
X116173809Y-100845238D01*
D13*
X114726190Y-102333333D02*
X114488095Y-102500000D01*
X114726190Y-102619047D02*
X114226190Y-102619047D01*
X114226190Y-102428571D01*
X114250000Y-102380952D01*
X114273809Y-102357142D01*
X114321428Y-102333333D01*
X114392857Y-102333333D01*
X114440476Y-102357142D01*
X114464285Y-102380952D01*
X114488095Y-102428571D01*
X114488095Y-102619047D01*
X114726190Y-101857142D02*
X114726190Y-102142857D01*
X114726190Y-102000000D02*
X114226190Y-102000000D01*
X114297619Y-102047619D01*
X114345238Y-102095238D01*
X114369047Y-102142857D01*
%TD*%
M02*
